<?xml version="1.0" encoding="utf-8"?>
<!-- Generator: Adobe Illustrator 14.0.0, SVG Export Plug-In . SVG Version: 6.00 Build 43363)  -->
<!DOCTYPE svg PUBLIC "-//W3C//DTD SVG 1.1//EN" "http://www.w3.org/Graphics/SVG/1.1/DTD/svg11.dtd">
<svg version="1.1" xmlns="http://www.w3.org/2000/svg" xmlns:xlink="http://www.w3.org/1999/xlink" x="0px" y="0px" width="200px"
	 height="200px" viewBox="0 0 200 200" enable-background="new 0 0 200 200" xml:space="preserve">
<g id="Layer_1">
	<radialGradient id="SVGID_1_" cx="100.0122" cy="100.1523" r="96.0188" gradientUnits="userSpaceOnUse">
		<stop  offset="0" style="stop-color:#FFFFFF"/>
		<stop  offset="1" style="stop-color:#729BAF"/>
	</radialGradient>
	<path fill="url(#SVGID_1_)" stroke="#000000" stroke-width="5" d="M196.031,184.171c0,6.627-5.373,12-12,12H15.993
		c-6.627,0-12-5.373-12-12V16.133c0-6.627,5.373-12,12-12h168.038c6.627,0,12,5.373,12,12V184.171z"/>
</g>
<g id="Layer_2">
	<polygon fill="#F9ED32" stroke="#000000" points="100.013,14.922 106.279,27.622 120.295,29.659 110.154,39.545 112.549,53.504 
		100.013,46.914 87.477,53.504 89.871,39.545 79.729,29.659 93.745,27.622 	"/>
	<polygon fill="#F9ED32" stroke="#000000" points="161.828,14.922 168.095,27.622 182.11,29.658 171.97,39.545 174.364,53.504 
		161.828,46.914 149.292,53.504 151.686,39.545 141.545,29.658 155.561,27.622 	"/>
	<polygon fill="#F9ED32" stroke="#000000" points="132.319,53.504 138.586,66.203 152.602,68.24 142.461,78.127 144.855,92.086 
		132.319,85.496 119.783,92.086 122.177,78.127 112.036,68.24 126.052,66.203 	"/>
	<polygon fill="#F9ED32" stroke="#000000" points="70.961,53.504 77.228,66.203 91.244,68.24 81.103,78.127 83.498,92.086 
		70.961,85.496 58.425,92.086 60.819,78.127 50.678,68.24 64.694,66.203 	"/>
	<polygon fill="#F9ED32" stroke="#000000" points="39.643,14.922 45.91,27.621 59.925,29.658 49.785,39.545 52.179,53.504 
		39.643,46.914 27.107,53.504 29.5,39.545 19.36,29.658 33.375,27.621 	"/>
	<polygon fill="#F9ED32" stroke="#000000" points="100.013,98.159 106.279,110.859 120.295,112.896 110.154,122.781 112.549,136.74 
		100.013,130.15 87.477,136.74 89.871,122.781 79.729,112.896 93.745,110.859 	"/>
	<polygon fill="#F9ED32" stroke="#000000" points="161.828,98.159 168.095,110.858 182.11,112.895 171.97,122.781 174.364,136.74 
		161.828,130.15 149.292,136.74 151.686,122.781 141.545,112.895 155.561,110.858 	"/>
	<polygon fill="#F9ED32" stroke="#000000" points="132.319,136.74 138.586,149.439 152.602,151.477 142.461,161.363 
		144.855,175.322 132.319,168.732 119.783,175.322 122.177,161.363 112.036,151.477 126.052,149.439 	"/>
	<polygon fill="#F9ED32" stroke="#000000" points="70.961,136.74 77.228,149.439 91.244,151.477 81.103,161.363 83.498,175.322 
		70.961,168.732 58.425,175.322 60.819,161.363 50.678,151.477 64.694,149.439 	"/>
	<polygon fill="#F9ED32" stroke="#000000" points="39.643,98.159 45.91,110.857 59.925,112.895 49.785,122.781 52.179,136.74 
		39.643,130.15 27.107,136.74 29.5,122.781 19.36,112.895 33.375,110.857 	"/>
</g>
</svg>
