<?xml version="1.0" encoding="utf-8"?>
<!-- Generator: Adobe Illustrator 14.0.0, SVG Export Plug-In . SVG Version: 6.00 Build 43363)  -->
<!DOCTYPE svg PUBLIC "-//W3C//DTD SVG 1.1//EN" "http://www.w3.org/Graphics/SVG/1.1/DTD/svg11.dtd">
<svg version="1.1" xmlns="http://www.w3.org/2000/svg" xmlns:xlink="http://www.w3.org/1999/xlink" x="0px" y="0px" width="200px"
	 height="200px" viewBox="0 0 200 200" enable-background="new 0 0 200 200" xml:space="preserve">
<g id="Layer_1">
	<radialGradient id="SVGID_1_" cx="100.0122" cy="100.1523" r="96.0188" gradientUnits="userSpaceOnUse">
		<stop  offset="0" style="stop-color:#FFFFFF"/>
		<stop  offset="1" style="stop-color:#729BAF"/>
	</radialGradient>
	<path fill="url(#SVGID_1_)" stroke="#000000" stroke-width="5" d="M196.031,184.171c0,6.627-5.373,12-12,12H15.993
		c-6.627,0-12-5.373-12-12V16.133c0-6.627,5.373-12,12-12h168.038c6.627,0,12,5.373,12,12V184.171z"/>
</g>
<g id="Layer_2">
	<polygon fill="#F9ED32" stroke="#000000" points="58.327,80.709 64.594,93.409 78.609,95.446 68.469,105.332 70.863,119.291 
		58.327,112.701 45.791,119.291 48.185,105.332 38.043,95.446 52.059,93.409 	"/>
	<polygon fill="#F9ED32" stroke="#000000" points="141.545,80.709 147.812,93.409 161.827,95.445 151.687,105.332 154.081,119.291 
		141.545,112.701 129.009,119.291 131.402,105.332 121.262,95.445 135.277,93.409 	"/>
</g>
</svg>
