<?xml version="1.0" encoding="utf-8"?>
<!-- Generator: Adobe Illustrator 14.0.0, SVG Export Plug-In . SVG Version: 6.00 Build 43363)  -->
<!DOCTYPE svg PUBLIC "-//W3C//DTD SVG 1.1//EN" "http://www.w3.org/Graphics/SVG/1.1/DTD/svg11.dtd">
<svg version="1.1" xmlns="http://www.w3.org/2000/svg" xmlns:xlink="http://www.w3.org/1999/xlink" x="0px" y="0px" width="200px"
	 height="200px" viewBox="0 0 200 200" enable-background="new 0 0 200 200" xml:space="preserve">
<g id="Layer_1">
	<radialGradient id="SVGID_1_" cx="100.0122" cy="100.1523" r="96.0188" gradientUnits="userSpaceOnUse">
		<stop  offset="0" style="stop-color:#FFFFFF"/>
		<stop  offset="1" style="stop-color:#729BAF"/>
	</radialGradient>
	<path fill="url(#SVGID_1_)" stroke="#000000" stroke-width="5" d="M196.031,184.171c0,6.627-5.373,12-12,12H15.993
		c-6.627,0-12-5.373-12-12V16.133c0-6.627,5.373-12,12-12h168.038c6.627,0,12,5.373,12,12V184.171z"/>
</g>
<g id="Layer_2">
	<polygon fill="#F9ED32" stroke="#000000" points="100.013,14.922 106.279,27.622 120.295,29.659 110.154,39.545 112.549,53.504 
		100.013,46.914 87.477,53.504 89.871,39.545 79.729,29.659 93.745,27.622 	"/>
	<polygon fill="#F9ED32" stroke="#000000" points="161.828,61.418 168.095,74.118 182.11,76.154 171.97,86.041 174.364,100 
		161.828,93.41 149.292,100 151.686,86.041 141.545,76.154 155.561,74.118 	"/>
	<polygon fill="#F9ED32" stroke="#000000" points="138.877,134.207 145.144,146.906 159.159,148.943 149.019,158.83 
		151.413,172.789 138.877,166.199 126.341,172.789 128.734,158.83 118.594,148.943 132.609,146.906 	"/>
	<polygon fill="#F9ED32" stroke="#000000" points="61.359,134.207 67.626,146.906 81.642,148.943 71.501,158.83 73.896,172.789 
		61.359,166.199 48.823,172.789 51.217,158.83 41.076,148.943 55.092,146.906 	"/>
	<polygon fill="#F9ED32" stroke="#000000" points="37.301,59.5 43.568,72.199 57.583,74.236 47.443,84.123 49.837,98.082 
		37.301,91.492 24.765,98.082 27.159,84.123 17.018,74.236 31.034,72.199 	"/>
</g>
</svg>
