<?xml version="1.0" encoding="utf-8"?>
<!-- Generator: Adobe Illustrator 14.0.0, SVG Export Plug-In . SVG Version: 6.00 Build 43363)  -->
<!DOCTYPE svg PUBLIC "-//W3C//DTD SVG 1.1//EN" "http://www.w3.org/Graphics/SVG/1.1/DTD/svg11.dtd">
<svg version="1.1" xmlns="http://www.w3.org/2000/svg" xmlns:xlink="http://www.w3.org/1999/xlink" x="0px" y="0px" width="200px"
	 height="200px" viewBox="0 0 200 200" enable-background="new 0 0 200 200" xml:space="preserve">
<g id="Layer_1">
	<radialGradient id="SVGID_1_" cx="100.0122" cy="100.1523" r="96.0188" gradientUnits="userSpaceOnUse">
		<stop  offset="0" style="stop-color:#FFFFFF"/>
		<stop  offset="1" style="stop-color:#923D29"/>
	</radialGradient>
	<path fill="url(#SVGID_1_)" stroke="#000000" stroke-width="5" d="M196.031,184.171c0,6.627-5.373,12-12,12H15.993
		c-6.627,0-12-5.373-12-12V16.133c0-6.627,5.373-12,12-12h168.038c6.627,0,12,5.373,12,12V184.171z"/>
</g>
<g id="Layer_2">
	<g id="g290">
		<ellipse id="ellipse292" fill="#4E4E4E" cx="100.012" cy="164.27" rx="59.729" ry="21.318"/>
		<g id="g294">
			<g id="g296">
				<g id="g298">
					<path id="path300" fill="#B4B4B4" d="M46.075,148.676c-0.227,0-0.444-0.119-0.566-0.324l-8.638-14.555l-7.431,1.727
						c-0.05,0.01-0.1,0.016-0.149,0.016c-0.231,0-0.45-0.123-0.57-0.332c-0.146-0.252-0.11-0.572,0.086-0.785l10.736-11.744
						l-3.655-7.689c-0.125-0.26-0.068-0.572,0.141-0.771c0.125-0.119,0.289-0.184,0.454-0.184c0.108,0,0.217,0.027,0.316,0.082
						l14.02,7.703l6.411-6.904c0.128-0.139,0.305-0.211,0.483-0.211c0.102,0,0.205,0.025,0.299,0.072
						c0.262,0.135,0.404,0.43,0.347,0.719l-3.23,16.859l8.723,2.973c0.285,0.096,0.47,0.375,0.448,0.68
						c-0.022,0.303-0.245,0.553-0.541,0.605l-17.217,3.16l0.194,8.225c0.007,0.301-0.189,0.57-0.477,0.652
						C46.198,148.666,46.136,148.676,46.075,148.676L46.075,148.676z"/>
					<path id="path302" fill="#010101" d="M36.482,114.697l14.469,7.951l6.759-7.279l-3.339,17.43l9.268,3.158l-17.771,3.262
						l0.208,8.793l-8.886-14.975l-7.898,1.836l11.042-12.076L36.482,114.697 M36.482,113.365c-0.331,0-0.658,0.127-0.91,0.367
						c-0.415,0.398-0.528,1.021-0.281,1.543l3.461,7.281l-10.432,11.412c-0.393,0.43-0.462,1.068-0.171,1.572
						c0.24,0.418,0.678,0.666,1.141,0.666c0.098,0,0.198-0.014,0.296-0.035l6.963-1.619l8.393,14.141
						c0.243,0.41,0.676,0.648,1.132,0.648c0.122,0,0.245-0.018,0.367-0.051c0.575-0.17,0.967-0.709,0.953-1.314l-0.182-7.652
						l16.662-3.057c0.592-0.109,1.037-0.609,1.081-1.215s-0.324-1.166-0.894-1.359l-8.176-2.787l3.12-16.285
						c0.112-0.584-0.171-1.17-0.696-1.439c-0.189-0.098-0.395-0.146-0.599-0.146c-0.357,0-0.708,0.146-0.963,0.42l-6.062,6.531
						l-13.574-7.459C36.914,113.42,36.697,113.365,36.482,113.365L36.482,113.365z"/>
					<path id="path304" fill="#818181" d="M36.482,114.697l14.469,7.951l6.759-7.279l-3.339,17.43l9.268,3.158l-17.771,3.262
						l0.208,8.793l-8.886-14.975l-7.898,1.836l11.042-12.076L36.482,114.697 M39.439,117.842l2.082,4.377
						c0.234,0.492,0.147,1.08-0.22,1.48l-8.143,8.906l3.735-0.867c0.098-0.023,0.197-0.035,0.295-0.035
						c0.458,0,0.891,0.24,1.133,0.648l6.314,10.641l-0.089-3.742c-0.015-0.656,0.445-1.225,1.084-1.344l12.742-2.338l-4.425-1.51
						c-0.625-0.211-1-0.859-0.874-1.516l2.471-12.895l-3.633,3.912c-0.256,0.275-0.607,0.42-0.963,0.42
						c-0.215,0-0.431-0.051-0.63-0.16L39.439,117.842L39.439,117.842z"/>
				</g>
				<g id="g306">
					<path id="path308" fill="#010101" d="M46.465,133.297c-1.661,0-3.009-1.363-3.009-3.035c0-1.678,1.349-3.039,3.009-3.039
						c1.66,0,3.009,1.361,3.009,3.039C49.474,131.934,48.125,133.297,46.465,133.297L46.465,133.297z"/>
					<path id="path310" fill="#676767" d="M46.464,127.889c1.297,0,2.35,1.063,2.35,2.373c0,1.309-1.052,2.369-2.35,2.369
						c-1.296,0-2.349-1.061-2.349-2.369C44.116,128.951,45.168,127.889,46.464,127.889 M46.464,126.555
						c-2.022,0-3.669,1.664-3.669,3.707c0,2.041,1.646,3.703,3.669,3.703s3.67-1.662,3.67-3.703
						C50.134,128.219,48.487,126.555,46.464,126.555L46.464,126.555z"/>
				</g>
			</g>
			<g id="g312">
				<g id="g314">
					<path id="path316" fill="#333333" d="M129.189,171.299c-4.328,0-8.112-2.939-9.232-7.154c-0.223-0.59-0.338-1.199-0.338-1.813
						v-10.84H89.39v10.84c0,0.613-0.114,1.219-0.338,1.813c-1.12,4.215-4.905,7.154-9.232,7.154c-4.328,0-8.116-2.939-9.237-7.156
						c-0.22-0.592-0.333-1.201-0.333-1.811V150.16v-12.174v-7.4l-4.91,4.955c-0.43,0.436-0.939,0.787-1.512,1.045
						c-1.452,0.844-3.103,1.289-4.782,1.289c-2.552,0-4.951-1.004-6.753-2.824c-3.058-3.086-3.677-7.863-1.521-11.646
						c0.253-0.57,0.601-1.086,1.033-1.523l17.056-17.215c0.152-0.156,0.316-0.295,0.483-0.43c1.687-1.453,3.891-2.271,6.165-2.271
						c2.552,0,4.954,1.004,6.757,2.826c1.796,1.814,2.79,4.277,2.795,6.809h39.018c0.008-2.531,0.999-4.994,2.795-6.809
						c1.805-1.822,4.205-2.826,6.758-2.826c2.274,0,4.478,0.818,6.205,2.305c0.125,0.098,0.288,0.238,0.442,0.396l17.055,17.213
						c0.433,0.439,0.782,0.955,1.034,1.525c2.158,3.787,1.536,8.563-1.522,11.648c-1.802,1.818-4.199,2.822-6.753,2.822
						c-1.68,0-3.332-0.445-4.781-1.289c-0.572-0.258-1.081-0.609-1.512-1.045l-5.041-5.088v7.533v12.174v12.172
						c0,0.609-0.113,1.219-0.334,1.811C137.305,168.359,133.518,171.299,129.189,171.299L129.189,171.299z"/>
					<path id="path318" fill="#010101" d="M133.631,103.299c1.906,0,3.811,0.662,5.351,1.986c0.126,0.098,0.249,0.205,0.366,0.32
						L156.4,122.82c0.345,0.348,0.605,0.752,0.79,1.191c1.855,3.191,1.437,7.359-1.277,10.096c-1.607,1.625-3.714,2.434-5.82,2.434
						c-1.446,0-2.894-0.381-4.179-1.145c-0.436-0.188-0.836-0.449-1.181-0.799l-7.294-7.361v10.748v12.176v12.172
						c0,0.49-0.099,0.963-0.274,1.406c-0.924,3.58-4.14,6.227-7.975,6.227c-3.837,0-7.052-2.646-7.974-6.227
						c-0.178-0.443-0.276-0.916-0.276-1.406V150.16H88.069v12.172c0,0.49-0.099,0.963-0.276,1.406
						c-0.922,3.58-4.137,6.227-7.974,6.227c-3.835,0-7.051-2.646-7.975-6.227c-0.177-0.443-0.275-0.916-0.275-1.406V150.16v-12.176
						v-10.617l-7.163,7.23c-0.345,0.35-0.746,0.613-1.18,0.801c-1.287,0.762-2.734,1.143-4.181,1.143
						c-2.106,0-4.212-0.811-5.819-2.432c-2.712-2.738-3.132-6.906-1.278-10.098c0.185-0.438,0.447-0.844,0.791-1.191l17.054-17.213
						c0.115-0.117,0.239-0.223,0.366-0.322c1.539-1.322,3.445-1.986,5.35-1.986c2.108,0,4.216,0.811,5.825,2.436
						c1.943,1.961,2.708,4.656,2.304,7.201h41.865c-0.403-2.543,0.361-5.238,2.303-7.201
						C129.415,104.109,131.522,103.299,133.631,103.299 M133.631,100.633c-2.906,0-5.637,1.143-7.691,3.217
						c-1.727,1.744-2.802,4.018-3.097,6.42H86.298c-0.295-2.402-1.372-4.678-3.098-6.42c-2.054-2.074-4.786-3.217-7.69-3.217
						c-2.567,0-5.055,0.918-7.014,2.582c-0.207,0.166-0.394,0.332-0.568,0.508l-17.053,17.213c-0.534,0.541-0.963,1.168-1.281,1.869
						c-2.413,4.291-1.696,9.693,1.769,13.188c2.051,2.072,4.781,3.215,7.686,3.215c1.888,0,3.743-0.494,5.379-1.432
						c0.697-0.322,1.319-0.758,1.851-1.293l2.655-2.682v4.184v12.176v12.172c0,0.756,0.135,1.506,0.399,2.23
						c1.301,4.76,5.592,8.068,10.49,8.068c4.898,0,9.187-3.309,10.487-8.066c0.267-0.725,0.402-1.477,0.402-2.232v-9.508h27.591
						v9.508c0,0.758,0.135,1.508,0.401,2.232c1.301,4.758,5.59,8.066,10.487,8.066c4.899,0,9.189-3.311,10.488-8.068
						c0.267-0.725,0.403-1.475,0.403-2.23V150.16v-12.176v-4.314l2.786,2.814c0.531,0.535,1.151,0.969,1.847,1.291
						c1.636,0.936,3.491,1.432,5.379,1.432c2.904,0,5.635-1.143,7.688-3.215c3.464-3.494,4.181-8.896,1.767-13.189
						c-0.318-0.701-0.748-1.328-1.278-1.865l-17.056-17.215c-0.175-0.178-0.361-0.344-0.568-0.508
						C138.686,101.551,136.197,100.633,133.631,100.633L133.631,100.633z"/>
					<path id="path320" fill="#272626" d="M133.631,103.299c1.906,0,3.811,0.662,5.351,1.986c0.126,0.098,0.249,0.205,0.366,0.32
						L156.4,122.82c0.345,0.348,0.605,0.752,0.79,1.191c1.855,3.191,1.437,7.359-1.277,10.096c-1.607,1.625-3.714,2.434-5.82,2.434
						c-1.446,0-2.894-0.381-4.179-1.145c-0.436-0.188-0.836-0.449-1.181-0.799l-7.294-7.361v10.748v12.176v12.172
						c0,0.49-0.099,0.963-0.274,1.406c-0.924,3.58-4.14,6.227-7.975,6.227c-3.837,0-7.052-2.646-7.974-6.227
						c-0.178-0.443-0.276-0.916-0.276-1.406V150.16H88.069v12.172c0,0.49-0.099,0.963-0.276,1.406
						c-0.922,3.58-4.137,6.227-7.974,6.227c-3.835,0-7.051-2.646-7.975-6.227c-0.177-0.443-0.275-0.916-0.275-1.406V150.16v-12.176
						v-10.617l-7.163,7.23c-0.345,0.35-0.746,0.613-1.18,0.801c-1.287,0.762-2.734,1.143-4.181,1.143
						c-2.106,0-4.212-0.811-5.819-2.432c-2.712-2.738-3.132-6.906-1.278-10.098c0.185-0.438,0.447-0.844,0.791-1.191l17.054-17.213
						c0.115-0.117,0.239-0.223,0.366-0.322c1.539-1.322,3.445-1.986,5.35-1.986c2.108,0,4.216,0.811,5.825,2.436
						c1.943,1.961,2.708,4.656,2.304,7.201h41.865c-0.403-2.543,0.361-5.238,2.303-7.201
						C129.415,104.109,131.522,103.299,133.631,103.299 M133.631,105.965c-1.495,0-2.901,0.588-3.959,1.654
						c-1.263,1.275-1.848,3.104-1.563,4.895l0.487,3.086h-3.096H83.638h-3.095l0.488-3.086c0.289-1.816-0.282-3.6-1.563-4.895
						c-1.058-1.068-2.463-1.654-3.958-1.654c-1.334,0-2.626,0.479-3.638,1.348l-0.049,0.043l-0.05,0.039
						c-0.048,0.037-0.085,0.07-0.111,0.098l-17.054,17.213c-0.093,0.094-0.169,0.211-0.228,0.354l-0.067,0.154l-0.085,0.148
						c-1.292,2.223-0.935,5.043,0.867,6.863c1.057,1.064,2.46,1.652,3.954,1.652c1.003,0,1.986-0.27,2.846-0.779l0.145-0.086
						l0.154-0.066c0.14-0.061,0.254-0.135,0.347-0.23l7.166-7.232l4.506-4.549v6.434v10.617v12.174v12.174
						c0,0.133,0.027,0.27,0.085,0.414l0.062,0.156l0.042,0.162c0.644,2.494,2.873,4.234,5.421,4.234c2.548,0,4.775-1.74,5.419-4.234
						l0.042-0.164l0.063-0.158c0.058-0.145,0.085-0.279,0.085-0.41V150.16v-2.666h2.64h32.871h2.64v2.666v12.172
						c0,0.135,0.027,0.27,0.084,0.41l0.063,0.16l0.042,0.164c0.643,2.492,2.872,4.232,5.42,4.232c2.549,0,4.777-1.738,5.42-4.232
						l0.042-0.164l0.062-0.156c0.06-0.145,0.087-0.281,0.087-0.414V150.16v-12.176v-10.748v-6.434l4.506,4.549l7.294,7.363
						c0.095,0.096,0.208,0.172,0.35,0.232l0.154,0.066l0.145,0.086c0.858,0.508,1.843,0.777,2.845,0.777
						c1.494,0,2.898-0.586,3.953-1.652c1.802-1.818,2.16-4.639,0.866-6.861l-0.084-0.148l-0.067-0.156
						c-0.06-0.143-0.135-0.26-0.232-0.354l-17.049-17.213c-0.029-0.027-0.066-0.061-0.111-0.096l-0.052-0.041l-0.048-0.041
						C136.257,106.443,134.964,105.965,133.631,105.965L133.631,105.965z"/>
				</g>
				<g id="g322">
					<g id="g324">
						<path id="path326" fill="#333333" d="M104.569,130.506c-25.292,0-45.867-20.771-45.867-46.304
							c0-25.532,20.575-46.303,45.867-46.303s45.867,20.771,45.867,46.303C150.437,109.734,129.861,130.506,104.569,130.506
							L104.569,130.506z"/>
						<path id="path328" fill="#010101" d="M104.569,39.231c24.604,0,44.549,20.134,44.549,44.971
							c0,24.837-19.945,44.972-44.549,44.972c-24.603,0-44.548-20.135-44.548-44.972C60.021,59.365,79.967,39.231,104.569,39.231
							 M104.569,36.565c-26.019,0-47.188,21.37-47.188,47.636c0,26.268,21.169,47.637,47.188,47.637
							c26.02,0,47.189-21.369,47.189-47.637C151.759,57.935,130.589,36.565,104.569,36.565L104.569,36.565z"/>
						<path id="path330" fill="#272626" d="M104.569,39.231c24.604,0,44.549,20.134,44.549,44.971
							c0,24.837-19.945,44.972-44.549,44.972c-24.603,0-44.548-20.135-44.548-44.972C60.021,59.365,79.967,39.231,104.569,39.231
							 M104.569,41.896c-23.108,0-41.908,18.979-41.908,42.305c0,23.328,18.8,42.306,41.908,42.306
							c23.108,0,41.909-18.979,41.909-42.306C146.479,60.875,127.678,41.896,104.569,41.896L104.569,41.896z"/>
					</g>
					<g id="g332">
						<path id="path334" fill="#F0D0B5" d="M104.571,120.301c-14.332,0-27.001-9.221-31.525-22.948l-0.616-1.865l1.856,0.598
							c9.215,2.972,19.687,4.543,30.286,4.543c10.597,0,21.069-1.571,30.282-4.543l1.856-0.598l-0.616,1.865
							C131.568,111.08,118.899,120.301,104.571,120.301L104.571,120.301z"/>
						<path id="path336" fill="#010101" d="M135.154,97.037c-4.264,12.934-16.341,22.264-30.585,22.264
							c-14.243,0-26.322-9.328-30.585-22.264c9.066,2.925,19.491,4.592,30.585,4.592C115.664,101.629,126.09,99.962,135.154,97.037
							 M138.264,93.937l-3.712,1.198c-9.117,2.941-19.484,4.495-29.982,4.495c-10.496,0-20.864-1.554-29.983-4.496l-3.71-1.198
							l1.23,3.733c4.66,14.135,17.705,23.631,32.463,23.631s27.805-9.496,32.464-23.631L138.264,93.937L138.264,93.937z"/>
						<path id="path338" fill="#DFB28B" d="M135.154,97.037c-4.264,12.934-16.341,22.264-30.585,22.264
							c-14.243,0-26.322-9.328-30.585-22.264c9.066,2.925,19.491,4.592,30.585,4.592C115.664,101.629,126.09,99.962,135.154,97.037
							 M77.359,100.12c5.008,10.419,15.501,17.183,27.21,17.183c11.711,0,22.203-6.764,27.211-17.182
							c-8.484,2.301-17.804,3.506-27.211,3.506C95.164,103.627,85.844,102.422,77.359,100.12L77.359,100.12z"/>
					</g>
					<g id="g340">
						<circle id="circle342" fill="#231F20" cx="98.563" cy="108.852" r="2.197"/>
						<circle id="circle344" fill="#231F20" cx="110.575" cy="108.852" r="2.197"/>
					</g>
				</g>
			</g>
			<g id="g346">
				<g id="g348">
					<path id="path350" fill="#B4B4B4" d="M153.17,162.002c-0.229,0-0.444-0.117-0.565-0.322l-8.639-14.559l-7.43,1.727
						c-0.05,0.012-0.099,0.016-0.15,0.016c-0.231,0-0.451-0.123-0.568-0.33c-0.146-0.254-0.111-0.572,0.085-0.787l10.738-11.744
						l-3.656-7.689c-0.125-0.262-0.069-0.574,0.14-0.771c0.124-0.121,0.289-0.184,0.455-0.184c0.107,0,0.216,0.027,0.314,0.082
						l14.019,7.703l6.412-6.904c0.127-0.137,0.304-0.209,0.481-0.209c0.103,0,0.206,0.021,0.3,0.072
						c0.262,0.135,0.404,0.428,0.35,0.721l-3.23,16.855l8.721,2.971c0.285,0.098,0.47,0.377,0.448,0.682
						c-0.022,0.303-0.245,0.553-0.541,0.607l-17.217,3.16l0.194,8.223c0.008,0.303-0.188,0.572-0.476,0.656
						C153.292,161.994,153.229,162.002,153.17,162.002L153.17,162.002z"/>
					<path id="path352" fill="#010101" d="M143.578,128.023l14.468,7.951l6.76-7.281l-3.34,17.43l9.268,3.156l-17.771,3.264
						l0.208,8.793l-8.886-14.975l-7.898,1.836l11.041-12.076L143.578,128.023 M143.579,126.689c-0.332,0-0.658,0.127-0.91,0.367
						c-0.415,0.398-0.529,1.021-0.282,1.543l3.463,7.283l-10.434,11.41c-0.393,0.43-0.463,1.066-0.172,1.572
						c0.239,0.418,0.679,0.664,1.142,0.664c0.098,0,0.198-0.012,0.296-0.033l6.964-1.619l8.392,14.143
						c0.243,0.408,0.677,0.648,1.133,0.648c0.122,0,0.245-0.018,0.368-0.053c0.575-0.168,0.966-0.707,0.951-1.313l-0.182-7.652
						l16.662-3.059c0.592-0.109,1.036-0.609,1.08-1.215s-0.324-1.166-0.894-1.359l-8.176-2.785l3.121-16.285
						c0.111-0.584-0.173-1.17-0.696-1.441c-0.191-0.098-0.397-0.146-0.599-0.146c-0.357,0-0.708,0.146-0.964,0.422l-6.062,6.529
						l-13.572-7.459C144.011,126.744,143.794,126.689,143.579,126.689L143.579,126.689z"/>
					<path id="path354" fill="#818181" d="M143.578,128.023l14.468,7.951l6.76-7.281l-3.34,17.43l9.268,3.156l-17.771,3.264
						l0.208,8.793l-8.886-14.975l-7.898,1.836l11.041-12.076L143.578,128.023 M146.535,131.166l2.082,4.379
						c0.234,0.492,0.148,1.078-0.219,1.48l-8.144,8.906l3.733-0.869c0.099-0.021,0.198-0.033,0.297-0.033
						c0.456,0,0.89,0.24,1.132,0.646l6.314,10.641l-0.089-3.742c-0.016-0.656,0.443-1.227,1.083-1.344l12.743-2.34l-4.424-1.506
						c-0.625-0.213-1-0.861-0.874-1.516l2.471-12.896l-3.633,3.912c-0.255,0.275-0.606,0.422-0.963,0.422
						c-0.215,0-0.432-0.053-0.631-0.162L146.535,131.166L146.535,131.166z"/>
				</g>
				<g id="g356">
					<path id="path358" fill="#010101" d="M153.561,146.621c-1.659,0-3.009-1.361-3.009-3.037s1.35-3.037,3.009-3.037
						s3.01,1.361,3.01,3.037S155.219,146.621,153.561,146.621L153.561,146.621z"/>
					<path id="path360" fill="#676767" d="M153.561,141.215c1.297,0,2.349,1.063,2.349,2.369c0,1.311-1.052,2.371-2.349,2.371
						c-1.298,0-2.349-1.061-2.349-2.371C151.212,142.277,152.264,141.215,153.561,141.215 M153.561,139.881
						c-2.023,0-3.669,1.662-3.669,3.703c0,2.043,1.646,3.705,3.669,3.705s3.668-1.662,3.668-3.705
						C157.229,141.543,155.584,139.881,153.561,139.881L153.561,139.881z"/>
				</g>
			</g>
		</g>
	</g>
	<path fill="#FFF200" stroke="#000000" stroke-width="2" d="M66.364,56.282c3.203-2.564,28.009,3.994,38.205,5.867
		s33.669-7.05,38.209-5.867s8.902,14.222,7.658,16.719s-32.424,9.324-45.864,9.991s-44.409-6.33-46.265-8.2
		S63.162,58.846,66.364,56.282z"/>
	<g id="Layer_3">
	</g>
</g>
</svg>
