<?xml version="1.0" encoding="utf-8"?>
<!-- Generator: Adobe Illustrator 14.0.0, SVG Export Plug-In . SVG Version: 6.00 Build 43363)  -->
<!DOCTYPE svg PUBLIC "-//W3C//DTD SVG 1.1//EN" "http://www.w3.org/Graphics/SVG/1.1/DTD/svg11.dtd">
<svg version="1.1" xmlns="http://www.w3.org/2000/svg" xmlns:xlink="http://www.w3.org/1999/xlink" x="0px" y="0px" width="200px"
	 height="200px" viewBox="0 0 200 200" enable-background="new 0 0 200 200" xml:space="preserve">
<g id="Layer_1" display="none">
	<radialGradient id="SVGID_1_" cx="100.0122" cy="100.1523" r="96.0188" gradientUnits="userSpaceOnUse">
		<stop  offset="0" style="stop-color:#FFFFFF"/>
		<stop  offset="1" style="stop-color:#729BAF"/>
	</radialGradient>
	<path display="inline" fill="url(#SVGID_1_)" stroke="#000000" stroke-width="5" d="M196.031,184.171c0,6.627-5.373,12-12,12
		H15.993c-6.627,0-12-5.373-12-12V16.133c0-6.627,5.373-12,12-12h168.038c6.627,0,12,5.373,12,12V184.171z"/>
</g>
<g id="Layer_2">
	<path fill="#020303" stroke="#020303" stroke-width="0.0938" d="M98.3,15h5.3c2.9,0.75,6.051,1.15,8.45,3
		c1.75,1.15,3.601,2.3,5.101,3.8c18.899,18.95,37.85,37.85,56.8,56.8c3.649,3.75,6.25,8.55,7.05,13.75v5.55
		c-0.65,2.25-1.05,4.55-2.05,6.65c-1.55,2.4-3,4.9-5.05,6.851c-18.75,18.8-37.551,37.55-56.301,56.35
		c-3.8,3.75-8.6,6.45-13.899,7.25h-5.35c-5.2-0.8-9.95-3.4-13.7-7c-19-19.05-38-38-57-57.05c-1.45-1.45-2.55-3.25-3.7-4.95
		c-1.8-2.35-2.1-5.35-2.95-8.1v-5.5c0.8-5.5,3.65-10.45,7.6-14.3c18.75-18.75,37.5-37.5,56.25-56.3c1.85-1.85,4.15-3.2,6.35-4.65
		C93.4,16.05,95.9,15.65,98.3,15z"/>
	<path fill="#F6EB16" stroke="#F6EB16" stroke-width="0.0938" d="M86.45,27.9c4.4-4.35,10.85-6.95,17.05-5.85
		c4.85,0.35,9.25,3,12.6,6.35c17.15,17.2,34.351,34.35,51.5,51.55c1.65,2.2,3.601,4.35,4.45,7.05c1.55,3.4,1.5,7.3,1.05,10.95
		c-0.449,4.25-3.149,7.7-5.899,10.75c-17.851,17.8-35.7,35.649-53.5,53.5c-1.3,1.149-2.9,1.75-4.4,2.55c-2.5,1.5-5.55,1.4-8.3,2.05
		c-2.45-0.55-4.95-0.649-7.3-1.55c-1.95-1-4.05-1.75-5.65-3.3c-17.25-17.3-34.5-34.5-51.75-51.75c-1.75-1.601-3.15-3.55-4.7-5.4
		c-3.1-4.3-3.4-9.85-2.65-14.9c0.9-3.9,3.15-7.25,5.7-10.25C51.95,62.4,69.15,45.15,86.45,27.9z"/>
	<path fill="#020303" stroke="#020303" stroke-width="0.0938" d="M103.15,58.2c2.25-0.4,4.85-0.1,6.5,1.6
		c1.85,1.65,3.05,4.35,2.35,6.8c-0.25,2.65-2.55,4.7-5,5.35c-4.45,1.55-9.85-2.75-9.05-7.5C98.5,61.7,100.5,59.2,103.15,58.2z"/>
	<path fill="#020303" stroke="#020303" stroke-width="0.0938" d="M71.55,73.9c0.5-1.75,1.1-3.65,2.8-4.6
		C79.6,69.35,84.8,69.35,90,69.35c1.05-0.05,2.05,0.2,3.05,0.4c2.05,3.3,4.55,6.3,6.7,9.55c1.1,1.65,2.15,3.75,1.15,5.7
		c-2.9,5.35-5.9,10.65-8.75,16.05c6.55,4.8,12.6,10.2,19.15,14.95c1.9-2.05,4.3-4.3,7.3-3.6c1.101,0.399,2.4,0.55,3.2,1.449
		c1.05,1.15,1.95,2.45,2.65,3.851c1.05-0.5,2.399-0.7,3.45-0.101c1.8,1.15,2.699,3.351,2.75,5.4c1.1,0.5,2,1.2,2.6,2.2
		c2.8-0.2,4.95,1.85,6.05,4.2c-12.45,0.1-24.85-0.051-37.3,0.149c-3.05-0.3-6.15,0.25-9.25-0.2c0.65-0.75,1.2-1.6,1.75-2.449
		c1.45-0.65,2.95-1.351,4.6-1.351c0.85-0.2,1.7-0.5,1.3-1.6c0.85-1.3,1.95-2.75,3.75-2.4c0.949-1.899,2.5-3.399,4.35-4.45
		c-5.6-4.6-11.25-9.1-16.85-13.699c-0.25-0.65-1.1-0.2-0.9,0.3c1.25,1.35,2.7,2.85,2.6,4.8c0.1,1.25-0.8,2.3-1.25,3.4
		c-1.45,3.449-3.55,6.649-5.2,10c-1,2.1-2.1,4.199-3.3,6.199c-1.3,1-3.25,1.7-4.85,0.95c-1-0.75-1.6-1.899-1.95-3.05
		c1-3.65,3.15-6.75,4.55-10.25c1.1-2.4,2.35-4.75,3.5-7.1C81.9,105,79,101.3,75.9,97.75c-0.05,3.7,0.15,7.45-0.05,11.15
		c-1.45,5.8-3.05,11.6-4.55,17.449c-0.45,2.45-3.85,3.801-5.85,2.15c-1.8-0.95-1.4-3.2-1.3-4.9c1.15-4.699,2.35-9.35,3.5-14.05
		c0.2-5.6-0.1-11.2,0.15-16.8c0-2.25,2.3-3.1,3.4-4.7c-1.2-0.4-2.05-1.4-2-2.65c-1.15-0.8-2.2-1.75-3.45-2.4
		c-0.5-1.05,0.2-1.9,1.15-2.25c0.85,0.8,1.8,1.5,2.75,2.1C70.3,79.9,70.85,76.9,71.55,73.9z"/>
	<path fill="#F6EB16" stroke="#F6EB16" stroke-width="0.0938" d="M77.5,76.65c1.8,0.05,3.55,0.05,5.3,0.05
		c-2.15,2.3-4.6,4.35-6.65,6.75C76.4,81.15,77.05,78.95,77.5,76.65z"/>
	<path fill="#F6EB16" stroke="#F6EB16" stroke-width="0.0938" d="M82.35,93c2.75-1.25,5.5-2.4,8.25-3.65c-1,2.55-2.7,4.65-3.7,7.15
		C85.3,95.4,83.75,94.3,82.35,93z"/>
</g>
</svg>
