<?xml version="1.0" encoding="utf-8"?>
<!-- Generator: Adobe Illustrator 14.0.0, SVG Export Plug-In . SVG Version: 6.00 Build 43363)  -->
<!DOCTYPE svg PUBLIC "-//W3C//DTD SVG 1.1//EN" "http://www.w3.org/Graphics/SVG/1.1/DTD/svg11.dtd">
<svg version="1.1" xmlns="http://www.w3.org/2000/svg" xmlns:xlink="http://www.w3.org/1999/xlink" x="0px" y="0px" width="200px"
	 height="200px" viewBox="0 0 200 200" enable-background="new 0 0 200 200" xml:space="preserve">
<filter  height="130%" width="140%" y="-15%" x="-15%" id="AI_Shadow_2" filterUnits="objectBoundingBox">
	<feGaussianBlur  in="SourceAlpha" result="blur" stdDeviation="6"></feGaussianBlur>
	<feOffset  dx="8" dy="8" in="blur" result="offsetBlurredAlpha"></feOffset>
	<feMerge>
		<feMergeNode  in="offsetBlurredAlpha"></feMergeNode>
		<feMergeNode  in="SourceGraphic"></feMergeNode>
	</feMerge>
</filter>
<g id="Layer_1">
	<radialGradient id="SVGID_1_" cx="100.0122" cy="100.1523" r="96.0188" gradientUnits="userSpaceOnUse">
		<stop  offset="0" style="stop-color:#FFFFFF"/>
		<stop  offset="1" style="stop-color:#729BAF"/>
	</radialGradient>
	<path fill="url(#SVGID_1_)" stroke="#000000" stroke-width="5" d="M196.031,184.171c0,6.627-5.373,12-12,12H15.993
		c-6.627,0-12-5.373-12-12V16.133c0-6.627,5.373-12,12-12h168.038c6.627,0,12,5.373,12,12V184.171z"/>
</g>
<g id="Layer_2">
	
		<radialGradient id="path5999_1_" cx="537.0215" cy="-1214.8506" r="53.0169" gradientTransform="matrix(1 0 0 -0.2406 -435 -254.3585)" gradientUnits="userSpaceOnUse">
		<stop  offset="0" style="stop-color:#5A5A5A"/>
		<stop  offset="1" style="stop-color:#CBC8C7"/>
	</radialGradient>
	
		<path id="path5999" inkscape:connector-curvature="0" sodipodi:nodetypes="ccc" fill="url(#path5999_1_)" stroke="#6B6B6A" stroke-width="6.7744" d="
		M50.164,33.558c13.077-6.459,65.687-12.142,103.715-0.463C119.728,54.388,85.174,55.469,50.164,33.558L50.164,33.558z"/>
	<g id="path5481" inkscape:connector-curvature="0" sodipodi:nodetypes="ccccc" filter="url(#AI_Shadow_2)">
		
			<linearGradient id="SVGID_2_" gradientUnits="userSpaceOnUse" x1="484.2051" y1="-345.7607" x2="592.2792" y2="-345.7607" gradientTransform="matrix(1 0 0 -1 -435 -242.2207)">
			<stop  offset="0" style="stop-color:#5A5A5A"/>
			<stop  offset="1" style="stop-color:#CBC8C7"/>
		</linearGradient>
		<path fill="url(#SVGID_2_)" d="M47.324,33.437l4.446,136.805c30.907,4.657,62.477,6.439,96.105-0.685l9.233-136.804
			C112.796,40.699,79.003,38.124,47.324,33.437z"/>
	</g>
	<linearGradient id="path6076_1_" gradientUnits="userSpaceOnUse" x1="47.6001" y1="103.8438" x2="156.6689" y2="103.8438">
		<stop  offset="0" style="stop-color:#CF2026"/>
		<stop  offset="1" style="stop-color:#8A1307"/>
	</linearGradient>
	<path id="path6076" inkscape:connector-curvature="0" sodipodi:nodetypes="ccccc" fill="url(#path6076_1_)" d="M47.6,38.254
		c49.081,6.233,83.828,4.718,109.069-1.935l-8.706,130.109c-32.456,7.315-64.436,5.596-96.251,0.726L47.6,38.254z"/>
	<path id="path6078" inkscape:connector-curvature="0" sodipodi:nodetypes="ccccccccc" fill="#BFAE30" d="M62.353,56.876
		l7.255,30.23l-19.105-2.66c2.913,24.752,5.706,49.447,11.125,75.453c25.912,4.265,51.392,3.778,76.663,0.967
		c4.354-14.37,8.706-43.186,13.059-75.452l-19.105,1.935l4.596-30.472C113.857,47.944,89.201,47.114,62.353,56.876L62.353,56.876z"
		/>
	<path id="path6078-4" inkscape:connector-curvature="0" sodipodi:nodetypes="ccccccccc" fill="#FFFFFF" d="M65.868,59.419
		L73.671,91l-18.573-2.282c2.647,23.483,5.186,43.768,10.111,68.439c23.551,4.046,46.709,3.585,69.676,0.919
		c3.956-13.636,8.155-37.829,12.111-68.441l-17.848,1.836l4.417-32.052C112.68,50.944,90.269,50.157,65.868,59.419L65.868,59.419z"
		/>
	<path id="path6078-4-9" inkscape:connector-curvature="0" sodipodi:nodetypes="ccccccccc" fill="#333333" d="M67.719,60.69
		l8.118,32.663l-18.563-2.22c2.508,22.848,5.155,40.649,9.821,64.656c22.312,3.937,44.252,3.485,66.01,0.892
		c3.749-13.266,7.724-34.629,11.473-64.413l-17.392,1.544l4.668-33.121C112.067,52.445,90.836,51.679,67.719,60.69L67.719,60.69z"/>
	<path id="text6116" inkscape:connector-curvature="0" fill="#FFFFFF" stroke="#D0B632" stroke-width="1.0658" d="M86.617,59.962
		c-2.04,0.327-1.689,3.049-1.191,4.759c0.704,3.577,1.409,7.155,2.113,10.732c-0.665,0.202-1.364,0.611-1.862-0.206
		c-3.423-3.042-6.846-6.083-10.27-9.124c0.685,3.182,1.135,6.454,2.025,9.56c0.486,1.479,2.796,0.182,2.273,2.041
		c-1.701,0.498-3.404,0.997-5.105,1.495c-0.966-1.805,1.699-1.411,1.33-3.324c-0.505-3.66-1.369-7.239-2.034-10.863
		c-0.729-1.115-2.793-0.176-2.317-1.94c1.5-0.439,3-0.879,4.5-1.318c3.017,2.671,6.032,5.344,9.047,8.016
		c-0.538-2.477-0.868-5.033-1.605-7.435c-0.491-1.701-2.507-0.04-2.356-2.07c1.738-0.509,3.476-1.019,5.214-1.527
		C86.458,59.159,86.537,59.561,86.617,59.962z M97.839,74.583c-2.436,0.147-4.873,0.295-7.31,0.443
		c-0.778-2.207,2.205-0.506,1.853-2.615c-0.178-4.078-0.308-8.161-0.517-12.236c-0.67-0.644-2.797-0.338-1.785-1.707
		c2.362-0.143,4.723-0.286,7.084-0.429c0.782,2.224-2.25,0.49-1.87,2.639c0.187,4.051,0.287,8.11,0.528,12.155
		C96.442,74.059,98.248,72.443,97.839,74.583L97.839,74.583z M112.425,70.28c-0.608,2.613-2.388,5.006-4.74,5.043
		c-2.831,0.26-6.093-1.052-7.226-4.51c-1.753-4.644,0.307-11.041,4.523-12.294c2.105-0.658,4.479-0.167,6.176,1.534
		c0.571-0.416,1.057-1.241,1.791-0.861c0.286,0.486-0.079,1.614-0.036,2.341c-0.103,1.407-0.205,2.813-0.311,4.219
		c-1.758,0.536-0.911-2.522-1.813-3.631c-0.918-2.885-4.693-3.703-5.952-0.747c-1.218,2.805-1.51,6.178-1.15,9.295
		c0.245,2.584,2.572,4.013,4.521,3.348c2.04,0.022,2.357-3.777,3.515-4.06C111.956,70.065,112.19,70.172,112.425,70.28
		L112.425,70.28z M127.062,73.201c-0.448,1.986-0.895,3.972-1.341,5.958c-4.152-1.15-8.305-2.3-12.459-3.45
		c-0.262-2.402,2.305,0.282,2.376-1.977c0.711-3.939,1.508-7.86,2.165-11.811c-0.364-0.901-2.627-1.306-1.313-2.305
		c4.029,1.116,8.061,2.232,12.091,3.349c-0.324,1.949-0.648,3.898-0.974,5.847c-1.756,0.063-0.679-2.802-1.689-3.974
		c-0.901-1.747-2.859-2.475-4.453-2.197c-0.788,1.395-0.795,3.225-1.189,4.831c-0.517,1.539,2.01,0.937,2.45,0.118
		c0.246-1.013,1.526-2.615,1.77-1.124c-0.446,2.394-0.892,4.789-1.337,7.184c-1.658,0.183-0.547-2.085-1.459-3.105
		c-0.608-0.956-2.155-1.768-2.009,0.068c-0.238,1.622-0.748,3.222-0.753,4.863c1.051,1.272,3.013,1.428,4.407,0.947
		c1.774-0.149,1.898-3.916,3.511-3.279l0.109,0.031L127.062,73.201z"/>
	<path id="text6120" inkscape:connector-curvature="0" fill="#FFFFFF" stroke="#D0B632" d="M71.696,105.026
		c3.212-0.026,1.459-4.131-0.945-3.287c-1.385-0.537-0.844,1.229-1.011,2.148c-0.526,1.495,0.974,0.99,1.818,1.132L71.696,105.026
		L71.696,105.026z M71.523,111.706c3.172,0.643,2.775-4.926-0.29-4.021c-1.08-0.186-2.054-0.245-1.718,1.265
		c0.197,0.809-0.632,2.632,0.349,2.669C70.417,111.648,70.971,111.677,71.523,111.706L71.523,111.706z M75.133,106.395
		c3.329,1.072,2.899,7.13-0.502,7.733c-2.96,0.596-5.982-0.013-8.972-0.046c0.225-5.085,0.451-10.172,0.676-15.257
		c2.965,0.287,6.038-0.056,8.888,1.007C77.793,100.811,77.85,105.589,75.133,106.395z M88.876,112.215c-1.89,0-3.778,0-5.667,0
		c-0.389,0.868-0.485,2.186-1.05,2.784c-1.163,0-2.325,0-3.488,0c1.735-5.093,3.471-10.184,5.206-15.276c1.44,0,2.881,0,4.321,0
		c1.735,5.092,3.47,10.183,5.206,15.276c-1.214,0-2.429,0-3.643,0C89.465,114.071,89.17,113.144,88.876,112.215L88.876,112.215z
		 M84.112,109.381c1.283,0,2.567,0,3.85,0c-0.64-2.024-1.281-4.052-1.92-6.077C85.399,105.329,84.755,107.356,84.112,109.381z
		 M95.258,100.228c1.208,0,2.416,0,3.625,0c0,1.858,0,3.718,0,5.576c1.742-1.858,3.482-3.718,5.226-5.576c1.402,0,2.805,0,4.206,0
		c-2.256,2.411-4.511,4.822-6.768,7.234c2.488,2.68,4.977,5.359,7.464,8.041c-1.512,0-3.024,0-4.537,0
		c-1.863-2.006-3.727-4.011-5.591-6.016c0,2.005,0,4.01,0,6.016c-1.208,0-2.417,0-3.625,0
		C95.258,110.411,95.258,105.318,95.258,100.228L95.258,100.228z M110.27,99.954c3.262-0.043,6.521-0.086,9.78-0.128
		c-0.097,0.933,0.239,2.326-0.122,2.979c-2,0.027-4,0.053-6,0.079c0.195,0.856-0.358,2.546,0.342,2.839
		c1.826-0.022,3.652-0.047,5.478-0.07c-0.097,0.934,0.24,2.326-0.122,2.979c-1.878,0.024-3.756,0.049-5.634,0.073
		c0.014,1.166,0.026,2.332,0.039,3.499c2.121-0.028,4.241-0.056,6.363-0.083c-0.098,0.933,0.238,2.326-0.123,2.979
		c-3.277,0.042-6.555,0.085-9.831,0.128C110.383,110.137,110.327,105.045,110.27,99.954z M126.692,102.181
		c0.138,3.104,0.275,6.207,0.413,9.31c2.102,0.017,4.773-0.386,5.445-2.953c0.994-2.957-0.854-6.79-4.02-6.435
		C127.917,102.103,127.306,102.153,126.692,102.181L126.692,102.181z M122.939,99.396c3.474-0.023,7.205-0.982,10.424,0.843
		c4.49,2.781,4.172,11.341-0.829,13.319c-2.861,1.077-5.937,0.856-8.918,1.096C123.392,109.568,123.166,104.482,122.939,99.396z
		 M71.73,126.379c3.209-0.15,1.321-4.184-1.054-3.246c-1.402-0.484-0.803,1.261-0.94,2.187c-0.475,1.514,1.007,0.95,1.856,1.058
		L71.73,126.379L71.73,126.379z M71.778,133.062c3.192,0.519,2.609-5.031-0.422-4.005c-1.085-0.145-2.062-0.166-1.676,1.33
		c0.225,0.802-0.543,2.656,0.438,2.653C70.671,133.048,71.225,133.055,71.778,133.062L71.778,133.062z M75.209,127.611
		c3.363,0.942,3.134,7.012-0.245,7.75c-2.939,0.712-5.979,0.223-8.967,0.305c0.057-5.09,0.113-10.183,0.169-15.272
		c2.973,0.168,6.032-0.294,8.915,0.657C77.682,121.928,77.898,126.701,75.209,127.611L75.209,127.611z M80.683,120.872
		c3.26,0,6.52,0,9.78,0c-0.107,0.933,0.214,2.33-0.155,2.979c-2.001,0-4,0-6.001,0c0.186,0.858-0.386,2.54,0.311,2.844
		c1.826,0,3.652,0,5.478,0c-0.107,0.933,0.214,2.33-0.155,2.979c-1.878,0-3.756,0-5.634,0c0,1.165,0,2.332,0,3.498
		c2.121,0,4.242,0,6.364,0c-0.107,0.932,0.214,2.329-0.156,2.977c-3.277,0-6.555,0-9.832,0
		C80.683,131.057,80.683,125.965,80.683,120.872z M102.392,133.869c-1.89,0-3.778,0-5.667,0c-0.389,0.868-0.485,2.185-1.05,2.783
		c-1.163,0-2.325,0-3.488,0c1.735-5.093,3.47-10.183,5.206-15.275c1.44,0,2.881,0,4.321,0c1.735,5.093,3.47,10.183,5.206,15.275
		c-1.215,0-2.429,0-3.644,0C102.98,135.726,102.687,134.797,102.392,133.869L102.392,133.869z M97.627,131.036
		c1.284,0,2.566,0,3.85,0c-0.64-2.026-1.28-4.052-1.92-6.078C98.915,126.984,98.271,129.01,97.627,131.036z M109.237,120.872
		c1.351,0,2.699,0,4.049,0c1.703,3.492,3.407,6.985,5.111,10.479c0-3.493,0-6.986,0-10.479c1.146,0,2.289,0,3.436,0
		c0,5.093,0,10.185,0,15.275c-1.349,0-2.698,0-4.047,0c-1.705-3.492-3.408-6.984-5.111-10.477c0,3.492,0,6.984,0,10.477
		c-1.146,0-2.292,0-3.438,0C109.237,131.057,109.237,125.965,109.237,120.872L109.237,120.872z M135.007,120.7
		c0.013,1.078,0.025,2.154,0.037,3.232c-1.749-1.142-7.944-2.302-6.451,1.506c2.353,1.22,5.978,0.548,7.184,3.647
		c1.189,3.169-1.021,6.902-4.26,6.709c-2.164,0.212-4.358-0.176-6.397-0.969c-0.013-1.107-0.025-2.216-0.036-3.325
		c2.123,1.114,4.95,2.327,7.129,0.804c1.306-2.313-1.696-2.813-3.22-3.086c-2.726-0.166-4.912-3.04-3.934-5.971
		c1.019-3.63,5.235-3.516,8.029-2.982C133.732,120.378,134.373,120.524,135.007,120.7L135.007,120.7z"/>
	<path id="text6126" inkscape:connector-curvature="0" fill="#B39930" d="M73.967,142.45c0.991-0.229,0.455,0.874,0.517,1.457
		c-0.052,0.772-0.104,1.544-0.157,2.316c-0.991,0.229-0.455-0.877-0.518-1.458C73.862,143.994,73.915,143.222,73.967,142.45z
		 M74.065,140.997c0.842-0.362,0.83,1.196,0.016,0.78C73.925,141.667,74.098,141.22,74.065,140.997z M78.845,144.241
		c-0.045,0.75-0.089,1.503-0.134,2.254c-0.989,0.236-0.462-0.871-0.529-1.453c0.667-1.522-1.527-2.923-1.855-0.809
		c-0.042,0.704-0.084,1.407-0.126,2.111c-0.991,0.237-0.467-0.869-0.533-1.454c0.047-0.771,0.093-1.545,0.139-2.317
		c1.018-0.322,0.213,1.267,1.129,0.146C77.997,142.207,79.068,143.108,78.845,144.241L78.845,144.241z M82.939,141.896
		c-0.206,0.841,0.02,1.287,0.934,1.105c0.886,0.387-0.423,0.63-0.938,0.436c-0.176,0.54-0.083,1.373-0.156,2.025
		c-0.347,0.88,2.292,0.84,0.773,1.27c-1.476,0.264-1.487-1.27-1.346-2.278c0.342-0.932-0.378-0.892-0.384-1.503
		c0.907,0.334,0.058-1.251,0.827-1.067C82.746,141.888,82.843,141.892,82.939,141.896L82.939,141.896z M86.366,143.528
		c-1.833-0.001-1.283,3.788,0.526,2.688C87.645,145.547,87.617,143.613,86.366,143.528z M86.385,143.008
		c2.74,0.036,1.768,5.062-0.854,3.77C83.954,146.026,84.414,142.795,86.385,143.008z M91.955,143.976
		c1.062-1.81,3.073-0.146,2.494,1.474c-0.173,0.514,0.361,1.767-0.471,1.593c-0.409-0.273-0.04-1.291-0.141-1.859
		c0.47-2.036-2.314-1.549-1.81,0.249c-0.176,0.501,0.365,1.746-0.471,1.559c-0.409-0.273-0.039-1.293-0.141-1.859
		c0.47-2.036-2.313-1.549-1.809,0.248c-0.176,0.5,0.364,1.748-0.471,1.558c-0.409-0.272-0.039-1.291-0.141-1.858
		c0.092-0.584-0.122-1.486,0.15-1.882c0.915-0.285,0.127,1.257,1.011,0.095C90.81,142.944,91.765,143.192,91.955,143.976
		L91.955,143.976z M97.357,145.191c-2.387-0.383-0.736,2.711,0.43,0.91C98.057,145.456,98.18,145.034,97.357,145.191z
		 M98.585,144.949c-0.005,0.71-0.011,1.421-0.016,2.133c-0.996,0.368-0.273-1.237-1.138-0.072c-2.316,1.212-2.714-2.923-0.211-2.298
		c1.915,0.179-0.688-1.848-1.513-0.654C95.512,142.445,99.231,143.291,98.585,144.949L98.585,144.949z M100.44,142.279
		c-0.167,0.851,0.079,1.286,0.984,1.061c0.903,0.348-0.395,0.648-0.917,0.479c-0.152,0.546-0.02,1.376-0.063,2.029
		c-0.306,0.893,2.33,0.733,0.831,1.232c-1.461,0.333-1.544-1.198-1.45-2.213c0.298-0.945-0.418-0.873-0.452-1.484
		c0.92,0.294,0-1.253,0.776-1.104C100.246,142.279,100.343,142.279,100.44,142.279L100.44,142.279z M103.939,143.753
		c-1.831,0.083-1.108,3.844,0.649,2.662C105.311,145.711,105.192,143.779,103.939,143.753z M103.935,143.232
		c2.738-0.09,1.998,4.977-0.681,3.803C101.644,146.357,101.957,143.11,103.935,143.232z M111.178,143.298
		c0.477,1.272-2.672-0.5-1.844,1.259c1.376-0.064,3.155,1.666,1.231,2.408c-0.913,0.756-3.099-0.958-1.298-0.493
		c2.135,0.503,1.528-1.438-0.09-1.322C107.32,143.792,109.9,142.573,111.178,143.298L111.178,143.298z M114.084,144.955
		c-2.401-0.283-0.624,2.739,0.467,0.892C114.793,145.189,114.898,144.763,114.084,144.955z M115.301,144.66
		c0.024,0.711,0.049,1.423,0.072,2.134c-0.98,0.407-0.327-1.225-1.142-0.025c-2.265,1.307-2.832-2.812-0.306-2.289
		c1.92,0.102-0.763-1.814-1.539-0.589C112.126,142.286,115.877,142.979,115.301,144.66L115.301,144.66z M116.514,145.271
		c-0.032-0.753-0.064-1.506-0.1-2.261c0.961-0.337,0.552,0.818,0.677,1.39c-0.507,1.586,1.814,2.764,1.932,0.621
		c-0.029-0.709-0.061-1.414-0.09-2.119c0.959-0.338,0.549,0.818,0.676,1.39c0.031,0.774,0.065,1.547,0.098,2.32
		c-0.975,0.421-0.337-1.234-1.136-0.017C117.567,147.204,116.411,146.42,116.514,145.271z M123.479,142.817
		c0.319,1.198-2.458-0.437-2.216,1.525c-0.477,1.772,1.783,1.764,2.377,1.576c-0.861,1.901-4.255-0.52-2.805-2.386
		C121.323,142.593,122.583,142.462,123.479,142.817z M127.813,144.139c-0.003,0.644-1.211,0.218-1.725,0.405
		c-1.837-0.433-0.65,1.831,0.68,1.238c0.898-0.815,1.566,0.246,0.348,0.451c-2.985,1.367-3.888-4.194-0.682-3.791
		C127.28,142.511,127.811,143.347,127.813,144.139L127.813,144.139z M127.19,143.996c0.22-2.152-3.305-0.279-1.751,0.107
		C126.023,144.067,126.605,144.033,127.19,143.996z"/>
	<path id="path6133" inkscape:connector-curvature="0" sodipodi:nodetypes="cc" fill="none" d="M72.993,151.193
		c20.842,1.48,38.875,1.086,55.865,0"/>
	<path id="text6126-0" inkscape:connector-curvature="0" fill="#E4B23F" d="M93.555,155.356c-0.271,0.077-0.301-0.12-0.253-0.409
		c0.08-0.328-0.058-0.408-0.301-0.368c-0.24-0.014-0.479-0.027-0.719-0.04c-0.015-0.359,0.243-0.61,0.356-0.919
		c0.207-0.417,0.414-0.836,0.621-1.254c0.172,0.039,0.493-0.094,0.391,0.26c-0.021,0.591-0.041,1.181-0.063,1.771
		c0.171-0.064,0.489,0.083,0.262,0.229c-0.264-0.104-0.313,0.082-0.284,0.38C93.563,155.123,93.559,155.238,93.555,155.356
		L93.555,155.356z M92.489,154.335c0.278,0.016,0.556,0.031,0.833,0.046c0.021-0.617,0.041-1.234,0.061-1.852
		C93.085,153.131,92.787,153.733,92.489,154.335z M95.192,152.461c0.625,0.035,0.711,0.987,0.673,1.599
		c0.024,0.64-0.284,1.569-0.913,1.334c-0.538-0.251-0.556-1.121-0.514-1.732C94.48,153.144,94.68,152.42,95.192,152.461
		L95.192,152.461z M95.122,155.235c0.628-0.224,0.451-1.33,0.446-1.97c-0.026-0.913-0.916-0.57-0.833,0.201
		C94.712,154.031,94.556,155.046,95.122,155.235z M97.38,152.53c0.625,0.024,0.721,0.976,0.69,1.589
		c0.031,0.638-0.267,1.572-0.898,1.347c-0.541-0.24-0.568-1.109-0.532-1.723C96.674,153.226,96.867,152.497,97.38,152.53z
		 M97.339,155.306c0.626-0.234,0.437-1.336,0.425-1.978c-0.036-0.91-0.922-0.554-0.831,0.217
		C96.917,154.108,96.771,155.126,97.339,155.306L97.339,155.306z M100.123,154.158c0.131-0.716-0.658-1.349-1.007-0.638
		c-0.209,0.514-0.182,1.455,0.377,1.571C99.927,155.176,100.146,154.621,100.123,154.158z M100.45,155.135
		c0.101,0.841-0.549,1.462-1.178,1.242c-0.384,0.231-0.564-0.77-0.161-0.396c0.462,0.271,1.102-0.107,1.009-0.814
		c0.035-0.39-0.375,0.527-0.644,0.274c-0.674,0.015-0.931-1.006-0.782-1.696c0.062-0.763,0.875-1.186,1.317-0.627
		c0.237,0.491-0.039-0.428,0.337-0.186c0.221-0.034,0.059,0.409,0.107,0.591C100.454,154.06,100.451,154.598,100.45,155.135
		L100.45,155.135z M102.262,152.083c0.17,0.048,0.442-0.126,0.533,0.094c0.392,0.892,0.784,1.781,1.177,2.674
		c-0.014-0.935-0.025-1.869-0.037-2.804c0.191-0.008,0.44-0.087,0.354,0.269c0.014,1.024,0.028,2.05,0.042,3.075
		c-0.169-0.05-0.441,0.126-0.532-0.093c-0.393-0.892-0.785-1.783-1.179-2.675c0.014,0.936,0.027,1.869,0.039,2.803
		c-0.193,0.008-0.44,0.088-0.354-0.268C102.29,154.132,102.276,153.107,102.262,152.083z M104.966,152.017
		c0.563-0.021,1.126-0.045,1.688-0.065c0.058,0.304-0.011,0.462-0.272,0.391c-0.349,0.016-0.697,0.029-1.045,0.041
		c0.008,0.331,0.016,0.662,0.023,0.994c0.426-0.018,0.85-0.033,1.272-0.052c0.058,0.305-0.011,0.463-0.272,0.393
		c-0.33,0.015-0.66,0.026-0.988,0.039c0.009,0.405,0.019,0.81,0.029,1.214c0.453-0.018,0.906-0.035,1.359-0.053
		c0.057,0.305-0.013,0.462-0.273,0.393c-0.479,0.02-0.958,0.037-1.439,0.056C105.021,154.25,104.994,153.133,104.966,152.017
		L104.966,152.017z M106.883,151.941c0.752-0.04,1.506-0.082,2.258-0.123c0.06,0.305-0.007,0.462-0.269,0.398
		c-0.222,0.011-0.443,0.023-0.665,0.035c0.033,0.989,0.066,1.979,0.101,2.968c-0.194,0.01-0.451,0.105-0.372-0.257
		c-0.031-0.897-0.062-1.796-0.092-2.691c-0.315,0.017-0.633,0.033-0.949,0.053C106.891,152.196,106.887,152.069,106.883,151.941
		L106.883,151.941z"/>
	<path id="text6165" inkscape:connector-curvature="0" fill="none" stroke="#D0B632" d="M93.376,92.684c-1.339,0-2.678,0-4.017,0
		c-0.196-0.739,0.528-0.478,0.986-0.537c0.655,0.143,0.587-0.598,0.576-1.058c-0.016-1.517,0.031-3.037-0.025-4.551
		c-0.156-0.472-0.759-0.224-1.126-0.285c-0.37,0.11-0.422-0.124-0.37-0.471c0.795-0.032,1.658-0.235,2.255-0.811
		c0.639-0.149,0.139,0.845,0.257,1.241c-0.015,1.839-0.003,3.679-0.007,5.519c0.017,0.913,1.448,0.011,1.471,0.673
		C93.376,92.499,93.376,92.591,93.376,92.684L93.376,92.684z M98.837,90.482c0.045,1.1-0.761,2.095-1.774,2.206
		c-0.871,0.106-1.942,0.165-2.592-0.587c-0.722-0.888-0.49-2.456,0.542-2.944c0.336-0.156,0.698-0.247,0.177-0.453
		c-1.084-0.697-1.062-2.597,0-3.305c0.965-0.716,2.553-0.56,3.19,0.575c0.438,0.865-0.044,1.94-0.818,2.354
		c-0.134,0.259,0.898,0.553,1.004,1.073C98.754,89.724,98.84,90.104,98.837,90.482L98.837,90.482z M97.792,86.779
		c0.067-0.951-0.906-1.542-1.687-1.298c-0.899,0.077-1.275,1.398-0.58,2.014c0.512,0.32,1.38,1.082,1.828,0.397
		C97.606,87.588,97.796,87.198,97.792,86.779z M98.026,90.943c0.07-0.832-0.642-1.345-1.301-1.526
		c-0.288-0.056-0.588-0.356-0.867-0.209c-0.93,0.365-1.236,1.688-0.737,2.557c0.604,0.852,1.955,0.801,2.625,0.071
		C97.945,91.592,98.029,91.263,98.026,90.943L98.026,90.943z M104.483,88.587c0.012,1.529-0.509,3.31-1.898,3.97
		c-0.762,0.28-1.695,0.302-2.393-0.178c-0.801-0.542-0.035-2.156,0.782-1.404c0.421,0.515-0.466,1.634,0.667,1.397
		c0.994-0.049,1.448-1.188,1.558-2.112c0.004-0.375,0.424-1.858-0.098-1.026c-0.886,1.113-2.776,0.731-3.248-0.644
		c-0.61-1.488,0.351-3.492,1.902-3.607c1.068-0.171,2.074,0.624,2.414,1.693C104.399,87.28,104.483,87.938,104.483,88.587
		L104.483,88.587z M103.287,87.481c0.04-0.889-0.39-2.182-1.408-2.029c-0.885,0.12-1.117,1.268-1.096,2.074
		c-0.067,0.851,0.456,1.884,1.365,1.686C102.936,89.121,103.33,88.259,103.287,87.481L103.287,87.481z M110.16,90.231
		c0.035,1.238-0.848,2.481-2.044,2.506c-1.036,0.168-2.09-0.493-2.451-1.56c-0.562-1.624-0.382-3.581,0.535-5.018
		c0.711-1.193,2.429-1.623,3.463-0.678c0.84,0.635-0.114,2.262-0.877,1.319c-0.303-0.53,0.541-1.445-0.462-1.358
		c-1.021-0.014-1.576,1.132-1.691,2.087c-0.029,0.368-0.243,1.38-0.069,1.31c0.716-1.12,2.431-1.167,3.16-0.043
		C110.023,89.2,110.164,89.718,110.16,90.231L110.16,90.231z M109.054,90.308c0.13-0.978-0.697-2.022-1.641-1.586
		c-0.948,0.425-1.021,1.817-0.687,2.721c0.235,1.056,1.739,1.302,2.095,0.213C108.999,91.234,109.054,90.766,109.054,90.308
		L109.054,90.308z"/>
</g>
</svg>
