<?xml version="1.0" encoding="utf-8"?>
<!-- Generator: Adobe Illustrator 14.0.0, SVG Export Plug-In . SVG Version: 6.00 Build 43363)  -->
<!DOCTYPE svg PUBLIC "-//W3C//DTD SVG 1.1//EN" "http://www.w3.org/Graphics/SVG/1.1/DTD/svg11.dtd">
<svg version="1.1" xmlns="http://www.w3.org/2000/svg" xmlns:xlink="http://www.w3.org/1999/xlink" x="0px" y="0px" width="200px"
	 height="200px" viewBox="0 0 200 200" enable-background="new 0 0 200 200" xml:space="preserve">
<g id="Layer_1">
	<radialGradient id="SVGID_1_" cx="100.0122" cy="100.1523" r="96.0188" gradientUnits="userSpaceOnUse">
		<stop  offset="0" style="stop-color:#FFFFFF"/>
		<stop  offset="1" style="stop-color:#729BAF"/>
	</radialGradient>
	<path fill="url(#SVGID_1_)" stroke="#000000" stroke-width="5" d="M196.031,184.171c0,6.627-5.373,12-12,12H15.993
		c-6.627,0-12-5.373-12-12V16.133c0-6.627,5.373-12,12-12h168.038c6.627,0,12,5.373,12,12V184.171z"/>
</g>
<g id="Layer_2">
	<g id="layer3" transform="translate(0,-177.16537)" inkscape:label="occhi" inkscape:groupmode="layer">
		<g id="g4701">
			<g id="path3841" inkscape:connector-curvature="0" sodipodi:nodetypes="csssssccccssssccscsscc">
				<path fill="#676767" d="M100.131,195.764c-24.891,0.152-51.302,16.801-60.676,43.744c-3.865,11.11-1.558,32.81-3.13,44.393
					c-1.573,11.582-3.302,18.721-5.596,27.042c-2.294,8.322-6.097,17.59-7.918,22.845c-1.831,5.283-2.63,8.486-0.433,9.491
					c0.666,0.305,1.483,0.394,2.423,0.332c3.808,0.223,8.378-0.909,12.908-2.207l14.958-4.33l6.662,4.056
					c5.49,5.113,8.01,15.025,14.365,16.009c14.16,2.196,22.036-12.003,34.83-8.971c8.682,2.056,16.837,12.905,25.673,11.683
					c8.674-1.2,11.735-14.281,19.701-17.913c7.004-3.19,18.762,2.723,24.562-0.389c0.004-0.003,0.011,0.001,0.015,0
					c0.508-0.094,0.982-0.333,1.442-0.765c7.996-7.48-12.675-41.635-14.451-50.35c-2.885-15.693,0.08-32.713-4.659-48.488
					c-5.853-19.485-22.448-43.187-55.729-45.994C103.437,195.812,101.79,195.754,100.131,195.764L100.131,195.764z"/>
				<path fill="none" stroke="#010101" d="M100.131,195.764c-24.891,0.152-51.302,16.801-60.676,43.744
					c-3.865,11.11-1.558,32.81-3.13,44.393c-1.573,11.582-3.302,18.721-5.596,27.042c-2.294,8.322-6.097,17.59-7.918,22.845
					c-1.831,5.283-2.63,8.486-0.433,9.491c0.666,0.305,1.483,0.394,2.423,0.332c3.808,0.223,8.378-0.909,12.908-2.207l14.958-4.33
					l6.662,4.056c5.49,5.113,8.01,15.025,14.365,16.009c14.16,2.196,22.036-12.003,34.83-8.971
					c8.682,2.056,16.837,12.905,25.673,11.683c8.674-1.2,11.735-14.281,19.701-17.913c7.004-3.19,18.762,2.723,24.562-0.389
					c0.004-0.003,0.011,0.001,0.015,0c0.508-0.094,0.982-0.333,1.442-0.765c7.996-7.48-12.675-41.635-14.451-50.35
					c-2.885-15.693,0.08-32.713-4.659-48.488c-5.853-19.485-22.448-43.187-55.729-45.994
					C103.437,195.812,101.79,195.754,100.131,195.764L100.131,195.764z"/>
			</g>
			<g id="g4508" transform="translate(-90.95644,88.944526)">
				<path id="path8371" inkscape:connector-curvature="0" sodipodi:nodetypes="csssssscssc" fill="#CDCCCC" d="M109.977,252.427
					c1.039,0.473,1.073,0.672,2.267,0.805c9.051,1.002,23.008-6.621,29.999-5.255c9.667,1.893,11.56,17.586,19.643,18.839
					c14.161,2.196,22.033-11.999,34.828-8.97c8.679,2.058,16.842,12.905,25.678,11.684c8.674-1.201,11.723-14.287,19.692-17.919
					c8.266-3.764,23.161,5.153,27.06-3.052c-1.705-7.276-20.097-18.754-28.762-21.387c-36.038-10.951-63.375-12.829-98.633,0.284
					C131.327,231.333,113.232,242.309,109.977,252.427L109.977,252.427z"/>
				<g id="path8642" inkscape:connector-curvature="0" sodipodi:nodetypes="cssssssc">
					<path fill="none" stroke="#848181" stroke-width="6.3" d="M115.299,251.203c0.876,0.546,28.357-13.449,36.737-15.382
						c8.595-1.983,15.417,3.801,24.231,4.146c12.883,0.509,27.991-14.354,37.478-10.413c4.462,1.852-0.124,11.063,2.84,14.877
						c2.822,3.638,5.022,3.428,9.626,3.35c8.082-0.138,17.215-12.888,24.407-9.2c6.439,3.303,15.724,11.879,15.66,10.769"/>
				</g>
				<path id="path8369" inkscape:connector-curvature="0" sodipodi:nodetypes="ssssssscsccsssssss" fill="#ECECEC" d="
					M110.56,252.953c-2.199-1.003-1.394-4.205,0.438-9.488c1.821-5.255,5.631-14.522,7.925-22.845
					c2.293-8.321,4.021-15.457,5.594-27.038c1.572-11.583-0.739-33.293,3.127-44.404c9.999-28.739,39.376-45.759,65.621-43.545
					c33.28,2.806,49.873,26.504,55.729,45.989c4.739,15.776,1.776,32.792,4.661,48.485c1.778,8.715,22.448,42.871,14.452,50.35
					c-4.911,4.598-12.786-11.739-18.648-12.587c-7.247-0.214-12.408,4.613-16.037,6.878c-9.108,5.705-18.729,2.06-17.146-4.982
					c0.492-2.187,0.832-6.736-0.813-9.342c-2.425-3.844-9.992-1.509-14.022,0.454c-10.492,5.107-21.601,9.115-26.602,8.498
					c-4.964-0.608-15.711-5.839-23.972-3.694c-7.49,1.942-8.576,3.212-16.338,7.587C127.575,247.19,115.236,255.09,110.56,252.953
					L110.56,252.953z"/>
				
					<linearGradient id="path8407_1_" gradientUnits="userSpaceOnUse" x1="350.2045" y1="-707.328" x2="411.9414" y2="-709.8921" gradientTransform="matrix(1 0 0 -1 -234.8135 -493.6394)">
					<stop  offset="0" style="stop-color:#010101;stop-opacity:0.7191"/>
					<stop  offset="1" style="stop-color:#010101;stop-opacity:0"/>
				</linearGradient>
				<path id="path8407" inkscape:connector-curvature="0" sodipodi:nodetypes="cccc" fill="url(#path8407_1_)" d="M154.089,235.191
					c12.563-11.571,16.9-33.219,18.673-42.383c5.865,17.929,8.514,28.091,4.402,46.572
					C173.48,240.321,161.584,234.082,154.089,235.191L154.089,235.191z"/>
				
					<linearGradient id="rect8592_1_" gradientUnits="userSpaceOnUse" x1="449.5131" y1="-235.2533" x2="522.6433" y2="-222.9684" gradientTransform="matrix(1 0 0 -1 -296.957 -6.779)">
					<stop  offset="0" style="stop-color:#010101"/>
					<stop  offset="1" style="stop-color:#010101;stop-opacity:0"/>
				</linearGradient>
				<path id="rect8592" inkscape:connector-curvature="0" sodipodi:nodetypes="ccccccc" fill="url(#rect8592_1_)" d="
					M214.243,186.788c-0.805,0.08,6.537,41.483,17.113,58.875c-1.141,1.314-8.464,3.246-12.664,0.249
					c-1.225-0.795-1.965-1.996-2.535-3.338c-0.212-2.025,0.496-3.872,0.575-5.601c0.021-3.46-0.03-2.804-0.757-5.72
					C214.734,222.074,211.774,196.21,214.243,186.788L214.243,186.788z"/>
				
					<linearGradient id="path8630_1_" gradientUnits="userSpaceOnUse" x1="445.6967" y1="-217.847" x2="489.9874" y2="-217.2642" gradientTransform="matrix(1 0 0 -1 -221.7002 3.8275)">
					<stop  offset="0" style="stop-color:#010101"/>
					<stop  offset="1" style="stop-color:#010101;stop-opacity:0"/>
				</linearGradient>
				
					<path id="path8630" inkscape:connector-curvature="0" sodipodi:nodetypes="cscssc" opacity="0.2917" fill="url(#path8630_1_)" enable-background="new    " d="
					M238.59,191.354c-0.947,0.317,0.046,14.853,10.207,30.71c6.224,9.711,12.535,23.681,16.71,29.193
					c-2.036-0.706-5.91-4.296-9.255-8.311c-1.84-2.21-3.391-3.538-6.06-5.235C237.533,229.657,236.195,201.914,238.59,191.354z"/>
				
					<linearGradient id="path8561_1_" gradientUnits="userSpaceOnUse" x1="448.0346" y1="-598.6469" x2="464.8274" y2="-649.2299" gradientTransform="matrix(1 0 0 -1 -296.957 -492.2107)">
					<stop  offset="0" style="stop-color:#FFFFFF"/>
					<stop  offset="1" style="stop-color:#FFFFFF;stop-opacity:0"/>
				</linearGradient>
				<path id="path8561" inkscape:connector-curvature="0" sodipodi:nodetypes="csscc" fill="url(#path8561_1_)" d="M130.738,153.451
					c4.368-18.064,35.782-49.103,60.328-43.021c2.253,0.558,2.825,1.625,1.409,5.929c-7.642,23.229-32.04,20.556-58,46.96
					C128.725,167.934,128.371,160.431,130.738,153.451L130.738,153.451z"/>
				
					<linearGradient id="path8774_1_" gradientUnits="userSpaceOnUse" x1="379.1606" y1="-295.6151" x2="455.1467" y2="-189.8635" gradientTransform="matrix(1 0 0 -1 -296.957 -6.779)">
					<stop  offset="0" style="stop-color:#FFFFFF"/>
					<stop  offset="1" style="stop-color:#FFFFFF;stop-opacity:0"/>
				</linearGradient>
				<path id="path8774" inkscape:connector-curvature="0" sodipodi:nodetypes="scscss" fill="url(#path8774_1_)" d="
					M114.716,244.846c8.208-14.506,11.916-32.582,15.33-47.305c3.759-11.785,23.151-18.703,25.053-6.266
					c2.997,19.592-13.535,43.646-21.691,49.63c-7.563,4.236-10.065,2.906-18.021,8.499
					C113.616,250.648,111.979,249.684,114.716,244.846L114.716,244.846z"/>
				<g id="g9131" transform="translate(-20.885571,332.14286)">
					<g id="g9050" transform="translate(112.14286,-754.28572)">
						<g id="g8364" transform="translate(0,-485.43175)">
							<path id="path7526" inkscape:connector-curvature="0" fill="#FFFFFF" stroke="#010101" stroke-width="2.8346" d="
								M82.354,1050.953c-0.996,0.019-2.001,0.151-2.992,0.416c-7.924,2.124-12.263,11.649-9.683,21.278
								c2.58,9.626,11.109,15.712,19.034,13.588c3.86-1.034,6.871-3.817,8.644-7.521c1.772,3.696,4.747,6.49,8.603,7.521
								c7.923,2.124,16.453-3.962,19.032-13.588c2.58-9.628-1.758-19.154-9.683-21.278c-7.07-1.895-14.619,2.735-17.994,10.597
								C94.41,1055.21,88.467,1050.842,82.354,1050.953L82.354,1050.953z"/>
							
								<path id="path8360" sodipodi:type="arc" sodipodi:cx="73.214287" sodipodi:cy="660.50055" sodipodi:rx="19.642857" sodipodi:ry="21.428572" fill="#010101" stroke="#010101" stroke-width="0.7145" stroke-linecap="round" stroke-linejoin="round" d="
								M95.25,1074.803c0,6.127-3.559,11.094-7.948,11.094c-4.39,0-7.949-4.967-7.949-11.094c0-6.128,3.559-11.096,7.949-11.096
								C91.691,1063.707,95.25,1068.675,95.25,1074.803z"/>
							
								<path id="path8362" sodipodi:type="arc" sodipodi:cx="73.214287" sodipodi:cy="660.50055" sodipodi:rx="19.642857" sodipodi:ry="21.428572" fill="#010101" stroke="#010101" stroke-width="0.7145" stroke-linecap="round" stroke-linejoin="round" d="
								M115.325,1074.803c0,6.127-3.56,11.094-7.95,11.094c-4.389,0-7.947-4.967-7.947-11.094c0-6.128,3.559-11.096,7.947-11.096
								C111.766,1063.707,115.325,1068.675,115.325,1074.803z"/>
						</g>
						
							<linearGradient id="path9025_1_" gradientUnits="userSpaceOnUse" x1="279.3769" y1="-158.4337" x2="298.9579" y2="-183.4345" gradientTransform="matrix(1 0 0 -1 -211.543 406.3484)">
							<stop  offset="0" style="stop-color:#FFFFFF"/>
							<stop  offset="1" style="stop-color:#FFFFFF;stop-opacity:0"/>
						</linearGradient>
						<path id="path9025" inkscape:connector-curvature="0" sodipodi:nodetypes="scscs" fill="url(#path9025_1_)" d="
							M82.607,579.624c-2.312,1.726-4.472,9.695-4.335,9.832c5.575,27.361,15.795,14.304,17.795,1.75
							c1.284-8.067-1.716-15.722-8.58-12.989C87.487,578.217,84.785,577.999,82.607,579.624z"/>
						
							<linearGradient id="path9046_1_" gradientUnits="userSpaceOnUse" x1="255.916" y1="-158.9152" x2="275.4961" y2="-183.9148" gradientTransform="matrix(1 0 0 -1 -167.9727 405.4558)">
							<stop  offset="0" style="stop-color:#FFFFFF"/>
							<stop  offset="1" style="stop-color:#FFFFFF;stop-opacity:0"/>
						</linearGradient>
						<path id="path9046" inkscape:connector-curvature="0" sodipodi:nodetypes="scscs" fill="url(#path9046_1_)" d="
							M102.717,579.212c-2.312,1.725-4.473,9.693-4.336,9.83c5.575,27.361,15.796,14.306,17.795,1.751
							c1.285-8.067-1.715-15.722-8.58-12.989C107.596,577.805,104.894,577.586,102.717,579.212z"/>
					</g>
					<g id="path9066" inkscape:connector-curvature="0">
						<path fill="none" stroke="#010101" stroke-width="2.8346" d="M194.579-187.941c-0.996,0.018-2.002,0.15-2.992,0.416
							c-7.925,2.123-12.262,11.649-9.683,21.277c2.58,9.629,11.108,15.713,19.032,13.59c3.862-1.035,6.872-3.818,8.646-7.522
							c1.771,3.696,4.746,6.489,8.602,7.522c7.925,2.123,16.453-3.961,19.033-13.59c2.58-9.627-1.76-19.154-9.683-21.277
							c-7.071-1.894-14.62,2.734-17.994,10.597C206.636-183.682,200.692-188.051,194.579-187.941L194.579-187.941z"/>
					</g>
				</g>
			</g>
		</g>
	</g>
</g>
</svg>
