<?xml version="1.0" encoding="utf-8"?>
<!-- Generator: Adobe Illustrator 14.0.0, SVG Export Plug-In . SVG Version: 6.00 Build 43363)  -->
<!DOCTYPE svg PUBLIC "-//W3C//DTD SVG 1.1//EN" "http://www.w3.org/Graphics/SVG/1.1/DTD/svg11.dtd">
<svg version="1.1" id="Layer_1" xmlns="http://www.w3.org/2000/svg" xmlns:xlink="http://www.w3.org/1999/xlink" x="0px" y="0px"
	 width="200px" height="200px" viewBox="0 0 200 200" enable-background="new 0 0 200 200" xml:space="preserve">
<filter  id="AI_GaussianBlur_4">
	<feGaussianBlur  stdDeviation="4"></feGaussianBlur>
</filter>
<radialGradient id="SVGID_1_" cx="100.0122" cy="100.1523" r="96.0188" gradientUnits="userSpaceOnUse">
	<stop  offset="0" style="stop-color:#FFFFFF"/>
	<stop  offset="1" style="stop-color:#923D29"/>
</radialGradient>
<path fill="url(#SVGID_1_)" stroke="#000000" stroke-width="5" d="M196.031,184.171c0,6.627-5.373,12-12,12H15.993
	c-6.627,0-12-5.373-12-12V16.133c0-6.627,5.373-12,12-12h168.038c6.627,0,12,5.373,12,12V184.171z"/>
<g id="Layer_20">
	<g id="Layer_3">
		<g filter="url(#AI_GaussianBlur_4)">
			<path fill="#ED2224" d="M73.583,130.378c-1.845,1.412-5.043,0.332-7.145-2.414l0,0c-2.102-2.743-2.31-6.112-0.465-7.525
				l104.921-80.331c1.844-1.412,5.043-0.333,7.145,2.412l0,0c2.101,2.744,2.31,6.115,0.465,7.526L73.583,130.378z"/>
		</g>
		<path fill="#FFFFFF" d="M73.371,125.356c-0.9,0.689-2.188,0.518-2.876-0.381l0,0c-0.689-0.9-0.519-2.188,0.381-2.876
			l101.192-77.477c0.899-0.689,2.188-0.518,2.877,0.382l0,0c0.688,0.9,0.519,2.188-0.382,2.876L73.371,125.356z"/>
	</g>
	<g id="Layer_11">
		
			<linearGradient id="SVGID_2_" gradientUnits="userSpaceOnUse" x1="416.7676" y1="33.0332" x2="424.4912" y2="33.0332" gradientTransform="matrix(0.6079 0.794 0.794 -0.6079 -255.9337 -154.6916)">
			<stop  offset="0.0604" style="stop-color:#A8AFA5"/>
			<stop  offset="0.1611" style="stop-color:#1E251D"/>
			<stop  offset="0.2819" style="stop-color:#4F5750"/>
			<stop  offset="0.2866" style="stop-color:#484F49"/>
			<stop  offset="0.3085" style="stop-color:#262E2B"/>
			<stop  offset="0.3267" style="stop-color:#111A19"/>
			<stop  offset="0.3389" style="stop-color:#0D1514"/>
			<stop  offset="0.3859" style="stop-color:#0D1514"/>
			<stop  offset="0.4396" style="stop-color:#4B5151"/>
			<stop  offset="0.4966" style="stop-color:#A8A898"/>
			<stop  offset="0.5503" style="stop-color:#636C6C"/>
			<stop  offset="0.6275" style="stop-color:#8F9491"/>
			<stop  offset="0.896" style="stop-color:#4B5350"/>
			<stop  offset="1" style="stop-color:#B4BBB3"/>
		</linearGradient>
		<path fill="url(#SVGID_2_)" d="M28.048,162.499c-0.1,0.076-0.243,0.057-0.319-0.042l-4.418-5.771
			c-0.077-0.1-0.058-0.243,0.042-0.319l0.588-0.45c0.1-0.076,0.244-0.058,0.319,0.043l4.418,5.77
			c0.076,0.101,0.058,0.243-0.042,0.319L28.048,162.499z"/>
	</g>
	<g id="Layer_6">
		<g>
			
				<linearGradient id="SVGID_3_" gradientUnits="userSpaceOnUse" x1="416.4268" y1="59.4468" x2="425.1172" y2="59.4468" gradientTransform="matrix(0.6079 0.794 0.794 -0.6079 -255.9337 -154.6916)">
				<stop  offset="0.1611" style="stop-color:#A8AFA5"/>
				<stop  offset="0.2114" style="stop-color:#1E251D"/>
				<stop  offset="0.2819" style="stop-color:#4F5750"/>
				<stop  offset="0.2851" style="stop-color:#565C56"/>
				<stop  offset="0.3218" style="stop-color:#8F958F"/>
				<stop  offset="0.3554" style="stop-color:#BEC2BD"/>
				<stop  offset="0.3851" style="stop-color:#DFE2DE"/>
				<stop  offset="0.4097" style="stop-color:#F4F6F3"/>
				<stop  offset="0.4262" style="stop-color:#FCFDFB"/>
				<stop  offset="0.7349" style="stop-color:#FCFDFB"/>
				<stop  offset="0.7819" style="stop-color:#3D464B"/>
				<stop  offset="0.8456" style="stop-color:#464F54"/>
				<stop  offset="1" style="stop-color:#B4BBB3"/>
			</linearGradient>
			<path fill="url(#SVGID_3_)" d="M33.188,158.898l-0.544,0.836l-3.513,2.725c-0.5,0.384-0.876,0.028-1.258-0.472l-3.881-5.067
				c-0.382-0.501-0.626-0.955-0.127-1.339l3.604-2.794l0.918,0.026l36.604-28.025c0.5-0.383,1.215-0.288,1.598,0.212l3.326,4.345
				c0.382,0.5,0.288,1.216-0.211,1.597L33.188,158.898z"/>
		</g>
	</g>
	<g id="Layer_10">
		<line fill="none" stroke="#464F54" stroke-width="0.5" x1="26.413" y1="153.611" x2="31.679" y2="160.49"/>
		<line fill="none" stroke="#464F54" stroke-width="0.5" x1="26.051" y1="153.889" x2="31.318" y2="160.769"/>
		<line fill="none" stroke="#464F54" stroke-width="0.5" x1="25.688" y1="154.167" x2="30.955" y2="161.045"/>
		<line fill="none" stroke="#464F54" stroke-width="0.5" x1="25.327" y1="154.442" x2="30.594" y2="161.322"/>
		<line fill="none" stroke="#464F54" stroke-width="0.5" x1="24.964" y1="154.721" x2="30.231" y2="161.6"/>
		<line fill="none" stroke="#464F54" stroke-width="0.5" x1="24.603" y1="154.998" x2="29.87" y2="161.877"/>
	</g>
	<g id="Layer_12">
		
			<linearGradient id="SVGID_4_" gradientUnits="userSpaceOnUse" x1="415.3711" y1="46.6563" x2="417.3086" y2="46.6563" gradientTransform="matrix(0.6079 0.794 0.794 -0.6079 -255.9337 -154.6916)">
			<stop  offset="0" style="stop-color:#1E251D"/>
			<stop  offset="0.3054" style="stop-color:#0D1514"/>
			<stop  offset="0.5537" style="stop-color:#0D1514"/>
			<stop  offset="0.7886" style="stop-color:#121817"/>
			<stop  offset="0.9832" style="stop-color:#0D1514"/>
		</linearGradient>
		<path fill="url(#SVGID_4_)" d="M42.826,139.842l1.923,0.825l-17.075,12.858c0,0-0.054-0.819-0.778-0.267l-2.649,1.885
			l-0.136-1.116L42.826,139.842z"/>
		
			<linearGradient id="SVGID_5_" gradientUnits="userSpaceOnUse" x1="424.3193" y1="46.6553" x2="426.2559" y2="46.6553" gradientTransform="matrix(0.6079 0.794 0.794 -0.6079 -255.9337 -154.6916)">
			<stop  offset="0" style="stop-color:#1E251D"/>
			<stop  offset="0.3054" style="stop-color:#0D1514"/>
			<stop  offset="0.5537" style="stop-color:#0D1514"/>
			<stop  offset="0.7886" style="stop-color:#121817"/>
			<stop  offset="0.9832" style="stop-color:#0D1514"/>
		</linearGradient>
		<polygon fill="url(#SVGID_5_)" points="48.965,146.269 49.329,148.43 30.591,162.489 29.629,162.078 29.546,161.783 
			32.216,159.738 32.13,159.157 		"/>
	</g>
	<g id="Layer_13">
		
			<linearGradient id="SVGID_6_" gradientUnits="userSpaceOnUse" x1="417.0225" y1="46.627" x2="419.5293" y2="46.627" gradientTransform="matrix(0.6079 0.794 0.794 -0.6079 -255.9337 -154.6916)">
			<stop  offset="0" style="stop-color:#1E251D"/>
			<stop  offset="0.3054" style="stop-color:#0D1514"/>
			<stop  offset="0.5537" style="stop-color:#0D1514"/>
			<stop  offset="0.7886" style="stop-color:#121817"/>
			<stop  offset="0.9832" style="stop-color:#0D1514"/>
		</linearGradient>
		<path fill="url(#SVGID_6_)" d="M44.75,140.667c0,0,0.53,0.599,0.842,1.007c0.312,0.406,0.147,1.036,0.147,1.036L25.89,157.477
			l-1.271-1.754L44.75,140.667z"/>
		
			<linearGradient id="SVGID_7_" gradientUnits="userSpaceOnUse" x1="421.4707" y1="46.6846" x2="423.9785" y2="46.6846" gradientTransform="matrix(0.6079 0.794 0.794 -0.6079 -255.9337 -154.6916)">
			<stop  offset="0" style="stop-color:#1E251D"/>
			<stop  offset="0.3054" style="stop-color:#0D1514"/>
			<stop  offset="0.5537" style="stop-color:#0D1514"/>
			<stop  offset="0.7886" style="stop-color:#121817"/>
			<stop  offset="0.9832" style="stop-color:#0D1514"/>
		</linearGradient>
		<path fill="url(#SVGID_7_)" d="M47.498,144.162c0,0,0.53,0.6,0.842,1.006c0.312,0.408,0.147,1.038,0.147,1.038l-19.849,14.766
			l-1.272-1.754L47.498,144.162z"/>
	</g>
	<g id="Layer_8">
		
			<linearGradient id="SVGID_8_" gradientUnits="userSpaceOnUse" x1="424.6045" y1="63.5693" x2="428.3379" y2="63.5693" gradientTransform="matrix(0.6079 0.794 0.794 -0.6079 -255.9337 -154.6916)">
			<stop  offset="0.2248" style="stop-color:#0D130D"/>
			<stop  offset="0.3624" style="stop-color:#242927"/>
			<stop  offset="0.4732" style="stop-color:#0D1514"/>
			<stop  offset="0.8591" style="stop-color:#101514"/>
			<stop  offset="0.9329" style="stop-color:#242927"/>
			<stop  offset="1" style="stop-color:#010101"/>
		</linearGradient>
		<path fill="url(#SVGID_8_)" d="M56.199,141.089c0,0,1.135,1.717,1.293,2.205c0.159,0.487,0.683,0.985,0.683,0.985l-6.806,5.173
			l-2.079-2.713L56.199,141.089z"/>
	</g>
	<g id="Layer_7">
		<g>
			
				<linearGradient id="SVGID_9_" gradientUnits="userSpaceOnUse" x1="416.5488" y1="64.1733" x2="425.3643" y2="64.1733" gradientTransform="matrix(0.6079 0.794 0.794 -0.6079 -255.9337 -154.6916)">
				<stop  offset="0" style="stop-color:#3C423E"/>
				<stop  offset="0.1544" style="stop-color:#0D1514"/>
				<stop  offset="0.4228" style="stop-color:#0D1514"/>
				<stop  offset="0.4933" style="stop-color:#4B5151"/>
				<stop  offset="0.6376" style="stop-color:#4A5050"/>
				<stop  offset="0.7081" style="stop-color:#242927"/>
				<stop  offset="0.8591" style="stop-color:#101514"/>
				<stop  offset="1" style="stop-color:#2E3430"/>
			</linearGradient>
			<path fill="url(#SVGID_9_)" d="M49.436,147.225l-5.359-6.999l7.603-5.821c0,0,0.77-0.494,3.38,2.914
				c2.61,3.409,1.979,4.085,1.979,4.085L49.436,147.225z"/>
		</g>
	</g>
	<g id="Layer_9">
		
			<linearGradient id="SVGID_10_" gradientUnits="userSpaceOnUse" x1="426.7988" y1="63.9395" x2="426.7988" y2="62.8424" gradientTransform="matrix(0.6079 0.794 0.794 -0.6079 -255.9337 -154.6916)">
			<stop  offset="0" style="stop-color:#3F3F3B"/>
			<stop  offset="0.2617" style="stop-color:#737367"/>
			<stop  offset="0.4195" style="stop-color:#A8A898"/>
			<stop  offset="0.6477" style="stop-color:#9C9D8E"/>
			<stop  offset="0.8054" style="stop-color:#757569"/>
			<stop  offset="1" style="stop-color:#3F3F3B"/>
		</linearGradient>
		<path fill="url(#SVGID_10_)" d="M54.477,146.375c-0.547,0.418-1.251,0.418-1.571,0c-0.321-0.419-0.137-1.099,0.41-1.517
			c0.547-0.419,1.25-0.419,1.57,0C55.207,145.276,55.022,145.956,54.477,146.375z"/>
		
			<linearGradient id="SVGID_11_" gradientUnits="userSpaceOnUse" x1="427.0195" y1="64.3384" x2="427.0195" y2="62.5725" gradientTransform="matrix(0.6079 0.794 0.794 -0.6079 -255.9337 -154.6916)">
			<stop  offset="0" style="stop-color:#3F3F3B"/>
			<stop  offset="0.5168" style="stop-color:#9C9D8E"/>
			<stop  offset="1" style="stop-color:#3F3F3B"/>
		</linearGradient>
		<path fill="url(#SVGID_11_)" d="M54.313,146.068c-0.196,0.15-0.464,0.133-0.595-0.039c-0.131-0.171-0.079-0.434,0.118-0.583
			c0.197-0.151,0.464-0.135,0.595,0.038C54.563,145.656,54.51,145.918,54.313,146.068z"/>
	</g>
	<g id="Layer_14">
		<path fill="#C93333" stroke="#5C1E11" d="M60.413,134.562c-0.225,0.172-0.546,0.129-0.718-0.097l0,0
			c-0.173-0.225-0.129-0.547,0.094-0.719l1.223-0.936c0.225-0.172,0.546-0.13,0.718,0.096l0,0c0.173,0.224,0.129,0.547-0.095,0.719
			L60.413,134.562z"/>
		
			<ellipse transform="matrix(0.7944 -0.6074 0.6074 0.7944 -67.3673 65.264)" fill="#B4BBB3" cx="62.721" cy="132.144" rx="0.437" ry="0.342"/>
	</g>
	<g id="Layer_15">
		
			<linearGradient id="SVGID_12_" gradientUnits="userSpaceOnUse" x1="415.8545" y1="75.8535" x2="418.5049" y2="75.8535" gradientTransform="matrix(0.6079 0.794 0.794 -0.6079 -255.9337 -154.6916)">
			<stop  offset="0" style="stop-color:#414A45"/>
			<stop  offset="0.443" style="stop-color:#262E2D"/>
			<stop  offset="0.6174" style="stop-color:#262E2D"/>
			<stop  offset="0.7617" style="stop-color:#353F3B"/>
			<stop  offset="1" style="stop-color:#212B26"/>
		</linearGradient>
		<path fill="url(#SVGID_12_)" d="M60.271,126.952l-5.823,4.818c0,0-0.35,0.339-0.12,0.593c0.23,0.255,0.722,0.991,0.722,0.991
			s1.416-0.402,2.026-0.87c0.612-0.468,4.829-3.445,4.829-3.445L60.271,126.952z"/>
	</g>
	<g id="Layer_4">
		<g>
			
				<linearGradient id="SVGID_13_" gradientUnits="userSpaceOnUse" x1="415.0293" y1="85.8398" x2="425.8203" y2="85.8398" gradientTransform="matrix(0.6079 0.794 0.794 -0.6079 -255.9337 -154.6916)">
				<stop  offset="0" style="stop-color:#1E251D"/>
				<stop  offset="0.3054" style="stop-color:#0D1514"/>
				<stop  offset="0.5537" style="stop-color:#262624"/>
				<stop  offset="0.7886" style="stop-color:#121817"/>
				<stop  offset="0.8758" style="stop-color:#242927"/>
				<stop  offset="0.9832" style="stop-color:#0D1514"/>
			</linearGradient>
			<path fill="url(#SVGID_13_)" d="M64.411,124.656l6.386-4.41c0,0,0.665-0.508,1.265,0.275c0.601,0.785,1.886,7.84-0.193,9.624
				l-2.535,1.94l0.171,0.348l-2.633,1.92c0,0,0.081-0.971-0.52-1.756c-0.6-0.783-1.014-1.856-1.014-1.856s-0.679-1.012-1.524-0.363
				c-0.845,0.647-1.353-0.018-1.723-0.501c-0.369-0.481-1.193-0.808-1.634-0.757c-0.44,0.05-1.45-2.146-1.45-2.146l3.695-2.924
				L64.411,124.656z"/>
		</g>
	</g>
	<g id="Layer_19">
		
			<ellipse transform="matrix(0.794 -0.6079 0.6079 0.794 -61.6672 65.1108)" fill="#262E2D" cx="65.239" cy="123.546" rx="1.557" ry="0.951"/>
	</g>
	<g id="Layer_16">
		<path fill="#8C927D" stroke="#A8A898" d="M60.741,126.677c-0.442,0.338-0.966,0.396-1.169,0.129
			c-0.204-0.267-0.012-0.756,0.43-1.096c0.441-0.338,0.965-0.395,1.169-0.128C61.375,125.848,61.183,126.339,60.741,126.677z"/>
	</g>
	<g id="Layer_5">
		<g>
			<g>
				
					<linearGradient id="SVGID_14_" gradientUnits="userSpaceOnUse" x1="416.0215" y1="87.0474" x2="416.0215" y2="84.9111" gradientTransform="matrix(0.6079 0.794 0.794 -0.6079 -255.9337 -154.6916)">
					<stop  offset="0" style="stop-color:#676767"/>
					<stop  offset="0.5" style="stop-color:#D7D6D6"/>
					<stop  offset="1" style="stop-color:#6A6A6A"/>
				</linearGradient>
				<path fill="url(#SVGID_14_)" d="M65.639,123.932c-0.479,0.368-1.053,0.421-1.283,0.121c-0.07-0.091-0.43-0.568-0.43-0.568
					l1.748-1.302c0,0,0.32,0.417,0.417,0.542C66.319,123.024,66.119,123.565,65.639,123.932z"/>
			</g>
			<g>
				<path fill="#9B9C9C" d="M64.398,123.656c-0.188,0-0.333-0.061-0.421-0.175c-0.213-0.278-0.015-0.79,0.443-1.141
					c0.253-0.193,0.542-0.307,0.794-0.307c0.188,0,0.333,0.063,0.421,0.177c0.212,0.278,0.014,0.79-0.443,1.141
					C64.94,123.544,64.65,123.656,64.398,123.656L64.398,123.656z"/>
				<path fill="#676767" d="M65.215,121.987c0.195,0,0.36,0.063,0.459,0.195c0.23,0.299,0.028,0.839-0.451,1.206
					c-0.271,0.207-0.572,0.314-0.824,0.314c-0.194,0-0.359-0.063-0.459-0.193c-0.23-0.301-0.027-0.841,0.452-1.207
					C64.662,122.097,64.963,121.987,65.215,121.987 M65.215,122.083c-0.242,0-0.521,0.107-0.766,0.295
					c-0.218,0.168-0.381,0.375-0.46,0.587c-0.073,0.195-0.063,0.368,0.027,0.487c0.098,0.128,0.262,0.155,0.382,0.155
					c0.243,0,0.521-0.106,0.767-0.294c0.218-0.167,0.381-0.375,0.46-0.587c0.073-0.196,0.064-0.369-0.027-0.487
					C65.499,122.11,65.335,122.083,65.215,122.083L65.215,122.083z"/>
			</g>
		</g>
	</g>
	<g id="Layer_17">
		<path fill="#62645D" stroke="#3C423E" d="M66.149,122.646c0.123,0.068,0.919-0.538,1.183-0.183
			c0.311,0.417-0.095,1.364-0.854,1.944c-0.757,0.581-1.271,0.285-1.282,0.552c-0.016,0.389,1.178,0.098,1.531-0.169
			c0.784-0.592,1.886-2.035,1.283-2.777c-0.603-0.739-1.904-0.049-2.01,0.212C65.896,122.485,66.017,122.574,66.149,122.646z"/>
	</g>
	<g id="Layer_18">
		
			<radialGradient id="SVGID_15_" cx="422.6084" cy="76.3794" r="1.9667" gradientTransform="matrix(0.6079 0.794 0.794 -0.6079 -255.9337 -154.6916)" gradientUnits="userSpaceOnUse">
			<stop  offset="0.5268" style="stop-color:#80532B"/>
			<stop  offset="0.9396" style="stop-color:#C5A783"/>
		</radialGradient>
		<path fill="url(#SVGID_15_)" stroke="#603A17" d="M62.905,134.143c0.26-0.198,0.526,0.171,0.578,0.239
			c0.052,0.068,0.385,0.621-0.712,1.461c-1.098,0.841-1.507,0.705-1.714,0.435c-0.208-0.273-0.129-0.64,0.052-0.777
			c0,0,0.391,0.428,1.229-0.213C63.173,134.646,62.905,134.143,62.905,134.143z"/>
	</g>
</g>
<g id="Layer_20_copy">
	<g id="Layer_3_copy">
		<g filter="url(#AI_GaussianBlur_4)">
			<path fill="#48A6DD" d="M136.396,121.06c1.886,1.452,1.763,4.773-0.274,7.418l0,0c-2.037,2.645-5.217,3.612-7.103,2.162
				L21.763,48.05c-1.885-1.451-1.764-4.772,0.273-7.418l0,0c2.037-2.645,5.217-3.613,7.102-2.161L136.396,121.06z"/>
		</g>
		<path fill="#FFFFFF" d="M131.484,122.161c0.912,0.701,1.082,2.008,0.381,2.92l0,0c-0.703,0.911-2.01,1.082-2.92,0.381
			l-102.468-78.9c-0.911-0.702-1.082-2.009-0.379-2.92l0,0c0.701-0.911,2.008-1.081,2.919-0.38L131.484,122.161z"/>
	</g>
	<g id="Layer_36">
		
			<linearGradient id="SVGID_16_" gradientUnits="userSpaceOnUse" x1="140.7666" y1="-243.793" x2="146.9355" y2="-243.793" gradientTransform="matrix(0.6101 -0.7923 -0.7923 -0.6101 -145.1188 92.6917)">
			<stop  offset="0" style="stop-color:#3C423E"/>
			<stop  offset="0.1544" style="stop-color:#0D1514"/>
			<stop  offset="0.4228" style="stop-color:#0D1514"/>
			<stop  offset="0.4933" style="stop-color:#4B5151"/>
			<stop  offset="0.6376" style="stop-color:#4A5050"/>
			<stop  offset="0.7081" style="stop-color:#242927"/>
			<stop  offset="0.8591" style="stop-color:#101514"/>
			<stop  offset="1" style="stop-color:#2E3430"/>
		</linearGradient>
		<polygon fill="url(#SVGID_16_)" points="138.8,125.872 135.036,130.76 132.806,129.042 136.569,124.154 		"/>
	</g>
	<g id="Layer_35">
		
			<linearGradient id="SVGID_17_" gradientUnits="userSpaceOnUse" x1="140.5156" y1="-240.6787" x2="146.666" y2="-240.6787" gradientTransform="matrix(0.6101 -0.7923 -0.7923 -0.6101 -145.1188 92.6917)">
			<stop  offset="0.0973" style="stop-color:#A9AFAC"/>
			<stop  offset="0.1544" style="stop-color:#1F2524"/>
			<stop  offset="0.2819" style="stop-color:#505755"/>
			<stop  offset="0.2851" style="stop-color:#565C5A"/>
			<stop  offset="0.3218" style="stop-color:#8F9592"/>
			<stop  offset="0.3554" style="stop-color:#BEC2BF"/>
			<stop  offset="0.3851" style="stop-color:#DFE2DF"/>
			<stop  offset="0.4097" style="stop-color:#F4F6F3"/>
			<stop  offset="0.4262" style="stop-color:#FCFDFB"/>
			<stop  offset="0.6342" style="stop-color:#FCFDFB"/>
			<stop  offset="0.7047" style="stop-color:#010101"/>
			<stop  offset="0.8121" style="stop-color:#464F54"/>
			<stop  offset="0.8691" style="stop-color:#010101"/>
			<stop  offset="0.9094" style="stop-color:#A3A39C"/>
		</linearGradient>
		<polygon fill="url(#SVGID_17_)" points="136.19,124.203 132.438,129.076 130.163,127.323 133.914,122.451 		"/>
		
			<linearGradient id="SVGID_18_" gradientUnits="userSpaceOnUse" x1="140.5156" y1="-238.9634" x2="147.1484" y2="-238.9634" gradientTransform="matrix(0.6101 -0.7923 -0.7923 -0.6101 -145.1188 92.6917)">
			<stop  offset="0.0973" style="stop-color:#A9AFAC"/>
			<stop  offset="0.1544" style="stop-color:#1F2524"/>
			<stop  offset="0.2819" style="stop-color:#505755"/>
			<stop  offset="0.2851" style="stop-color:#565C5A"/>
			<stop  offset="0.3218" style="stop-color:#8F9592"/>
			<stop  offset="0.3554" style="stop-color:#BEC2BF"/>
			<stop  offset="0.3851" style="stop-color:#DFE2DF"/>
			<stop  offset="0.4097" style="stop-color:#F4F6F3"/>
			<stop  offset="0.4262" style="stop-color:#FCFDFB"/>
			<stop  offset="0.6342" style="stop-color:#FCFDFB"/>
			<stop  offset="0.7047" style="stop-color:#010101"/>
			<stop  offset="0.8121" style="stop-color:#464F54"/>
			<stop  offset="0.8691" style="stop-color:#010101"/>
			<stop  offset="0.9094" style="stop-color:#A3A39C"/>
		</linearGradient>
		<polygon fill="url(#SVGID_18_)" points="134.255,122.104 130.209,127.358 129.674,126.947 133.721,121.692 		"/>
		
			<linearGradient id="SVGID_19_" gradientUnits="userSpaceOnUse" x1="140.5156" y1="-242.3955" x2="147.1475" y2="-242.3955" gradientTransform="matrix(0.6101 -0.7923 -0.7923 -0.6101 -145.1188 92.6917)">
			<stop  offset="0.0973" style="stop-color:#A9AFAC"/>
			<stop  offset="0.1544" style="stop-color:#1F2524"/>
			<stop  offset="0.2819" style="stop-color:#505755"/>
			<stop  offset="0.2851" style="stop-color:#565C5A"/>
			<stop  offset="0.3218" style="stop-color:#8F9592"/>
			<stop  offset="0.3554" style="stop-color:#BEC2BF"/>
			<stop  offset="0.3851" style="stop-color:#DFE2DF"/>
			<stop  offset="0.4097" style="stop-color:#F4F6F3"/>
			<stop  offset="0.4262" style="stop-color:#FCFDFB"/>
			<stop  offset="0.6342" style="stop-color:#FCFDFB"/>
			<stop  offset="0.7047" style="stop-color:#010101"/>
			<stop  offset="0.8121" style="stop-color:#464F54"/>
			<stop  offset="0.8691" style="stop-color:#010101"/>
			<stop  offset="0.9094" style="stop-color:#A3A39C"/>
		</linearGradient>
		<polygon fill="url(#SVGID_19_)" points="136.912,124.15 132.867,129.406 132.454,129.088 136.5,123.833 		"/>
	</g>
	<g id="Layer_11_copy">
		
			<linearGradient id="SVGID_20_" gradientUnits="userSpaceOnUse" x1="139.5137" y1="-296.8594" x2="147.3516" y2="-296.8594" gradientTransform="matrix(0.6101 -0.7923 -0.7923 -0.6101 -145.1188 92.6917)">
			<stop  offset="0.0604" style="stop-color:#A8AFA5"/>
			<stop  offset="0.1611" style="stop-color:#1F2521"/>
			<stop  offset="0.2819" style="stop-color:#505755"/>
			<stop  offset="0.2866" style="stop-color:#484F4D"/>
			<stop  offset="0.3085" style="stop-color:#262E2D"/>
			<stop  offset="0.3267" style="stop-color:#111A19"/>
			<stop  offset="0.3389" style="stop-color:#0D1514"/>
			<stop  offset="0.3859" style="stop-color:#0D1514"/>
			<stop  offset="0.4161" style="stop-color:#4B5151"/>
			<stop  offset="0.4564" style="stop-color:#FFFFFF"/>
			<stop  offset="0.5201" style="stop-color:#FFFFFF"/>
			<stop  offset="0.557" style="stop-color:#4B5151"/>
			<stop  offset="0.6678" style="stop-color:#121817"/>
			<stop  offset="0.755" style="stop-color:#4B535A"/>
			<stop  offset="0.8322" style="stop-color:#121817"/>
		</linearGradient>
		<path fill="url(#SVGID_20_)" d="M180.28,157.29c0.103,0.077,0.121,0.222,0.043,0.323c0,0,0.293,0.519-1.85,3.303
			c-1.871,2.429-2.65,2.54-2.65,2.54c-0.078,0.102-0.223,0.121-0.323,0.042l-1.032-0.793c-0.102-0.079-0.119-0.224-0.041-0.325
			l4.498-5.844c0.078-0.102,0.224-0.118,0.325-0.041L180.28,157.29z"/>
	</g>
	<path opacity="0.4" fill="#010101" enable-background="new    " d="M179.147,155.917c0.506,0.389,1.22,0.691,0.806,1.229
		l-4.194,5.447c-0.414,0.536-0.995,0.751-1.5,0.36l-8.922-6.831l-0.192-0.935l-37.798-29.104c-0.506-0.389,2.41-1.456,3.77-1.578
		l2.033,1.469c0.944,0.317,2.709,0.375,3.862,0.102c1.583-0.376,1.832-1.241,2.473-0.748L179.147,155.917z"/>
	<g id="Layer_6_copy">
		<g>
			
				<linearGradient id="SVGID_21_" gradientUnits="userSpaceOnUse" x1="138.9248" y1="-266.3779" x2="148.2861" y2="-266.3779" gradientTransform="matrix(0.6101 -0.7923 -0.7923 -0.6101 -145.1188 92.6917)">
				<stop  offset="0.0973" style="stop-color:#A9AFAC"/>
				<stop  offset="0.1544" style="stop-color:#1F2524"/>
				<stop  offset="0.2819" style="stop-color:#505755"/>
				<stop  offset="0.2851" style="stop-color:#565C5A"/>
				<stop  offset="0.3218" style="stop-color:#8F9592"/>
				<stop  offset="0.3554" style="stop-color:#BEC2BF"/>
				<stop  offset="0.3851" style="stop-color:#DFE2DF"/>
				<stop  offset="0.4097" style="stop-color:#F4F6F3"/>
				<stop  offset="0.4262" style="stop-color:#FCFDFB"/>
				<stop  offset="0.6342" style="stop-color:#FCFDFB"/>
				<stop  offset="0.7047" style="stop-color:#010101"/>
				<stop  offset="0.8121" style="stop-color:#464F54"/>
				<stop  offset="0.8691" style="stop-color:#010101"/>
				<stop  offset="0.9094" style="stop-color:#A3A39C"/>
			</linearGradient>
			<path fill="url(#SVGID_21_)" d="M170.006,148.688l0.974,0.298l8.829,6.76c0.507,0.39,0.237,0.876-0.177,1.414l-4.192,5.447
				c-0.414,0.536-0.816,0.92-1.321,0.53l-8.923-6.829l-0.191-0.937l-37.799-29.104c-0.506-0.389,2.411-1.455,3.77-1.577l2.032,1.467
				c0.946,0.318,2.71,0.377,3.863,0.104c1.584-0.375,2.112-1.732,2.754-1.239L170.006,148.688z"/>
		</g>
	</g>
	<g id="Layer_34">
		
			<linearGradient id="SVGID_22_" gradientUnits="userSpaceOnUse" x1="138.2061" y1="-286.6357" x2="139.7676" y2="-286.6357" gradientTransform="matrix(0.6101 -0.7923 -0.7923 -0.6101 -145.1188 92.6917)">
			<stop  offset="0" style="stop-color:#1E251D"/>
			<stop  offset="0.3054" style="stop-color:#0D1514"/>
			<stop  offset="0.5537" style="stop-color:#0D1514"/>
			<stop  offset="0.7886" style="stop-color:#121817"/>
			<stop  offset="0.9832" style="stop-color:#0D1514"/>
		</linearGradient>
		<path fill="url(#SVGID_22_)" d="M159.4,152.6c-0.48-0.37,0.355-1.552,0.355-1.552l14.92,11.67c0,0-1.276,0.806-1.643,0.524
			C172.667,162.96,159.882,152.97,159.4,152.6z"/>
		
			<linearGradient id="SVGID_23_" gradientUnits="userSpaceOnUse" x1="140.0283" y1="-286.9639" x2="142.7285" y2="-286.9639" gradientTransform="matrix(0.6101 -0.7923 -0.7923 -0.6101 -145.1188 92.6917)">
			<stop  offset="0" style="stop-color:#1E251D"/>
			<stop  offset="0.3054" style="stop-color:#0D1514"/>
			<stop  offset="0.5537" style="stop-color:#0D1514"/>
			<stop  offset="0.7886" style="stop-color:#121817"/>
			<stop  offset="0.9832" style="stop-color:#0D1514"/>
		</linearGradient>
		<path fill="url(#SVGID_23_)" d="M160.361,150.819c0,0,0.64-0.868,0.958-1.282c0.317-0.411,0.778-0.423,0.778-0.423l14.705,11.396
			l-1.688,2.034L160.361,150.819z"/>
		
			<linearGradient id="SVGID_24_" gradientUnits="userSpaceOnUse" x1="143.9814" y1="-287.0273" x2="146.9688" y2="-287.0273" gradientTransform="matrix(0.6101 -0.7923 -0.7923 -0.6101 -145.1188 92.6917)">
			<stop  offset="0" style="stop-color:#1E251D"/>
			<stop  offset="0.3054" style="stop-color:#0D1514"/>
			<stop  offset="0.5537" style="stop-color:#0D1514"/>
			<stop  offset="0.7886" style="stop-color:#121817"/>
			<stop  offset="0.9832" style="stop-color:#0D1514"/>
		</linearGradient>
		<path fill="url(#SVGID_24_)" d="M162.725,147.919c0,0,0.576-0.747,0.895-1.161c0.316-0.411,0.974-1.074,0.974-1.074l14.686,11.453
			l-1.676,2.336L162.725,147.919z"/>
		
			<linearGradient id="SVGID_25_" gradientUnits="userSpaceOnUse" x1="309.3105" y1="-286.8467" x2="310.9971" y2="-286.8467" gradientTransform="matrix(-0.6101 0.7923 -0.7923 -0.6101 134.6097 -270.5921)">
			<stop  offset="0" style="stop-color:#1E251D"/>
			<stop  offset="0.3054" style="stop-color:#0D1514"/>
			<stop  offset="0.5537" style="stop-color:#0D1514"/>
			<stop  offset="0.7886" style="stop-color:#121817"/>
			<stop  offset="0.9832" style="stop-color:#0D1514"/>
		</linearGradient>
		<path fill="url(#SVGID_25_)" d="M166.148,144.217c-0.481-0.371-1.409,0.74-1.409,0.74l14.879,11.613c0,0,0.669-1.612,0.304-1.896
			C179.554,154.394,166.63,144.587,166.148,144.217z"/>
	</g>
	<g id="Layer_29">
		
			<linearGradient id="SVGID_26_" gradientUnits="userSpaceOnUse" x1="138.9336" y1="-270.0518" x2="148.4775" y2="-270.0518" gradientTransform="matrix(0.6101 -0.7923 -0.7923 -0.6101 -145.1188 92.6917)">
			<stop  offset="0" style="stop-color:#7F8582"/>
			<stop  offset="0.2416" style="stop-color:#464F54"/>
			<stop  offset="0.3121" style="stop-color:#FCFDFB"/>
			<stop  offset="0.5906" style="stop-color:#FCFDFB"/>
			<stop  offset="0.6846" style="stop-color:#464F54"/>
			<stop  offset="0.8993" style="stop-color:#7F8582"/>
			<stop  offset="0.9866" style="stop-color:#A3A39C"/>
		</linearGradient>
		<path fill="url(#SVGID_26_)" d="M163.325,142.811c0.305,0.233,0.362,0.67,0.127,0.974l-4.975,6.461
			c-0.234,0.304-0.669,0.361-0.974,0.127l-7.791-5.998c-0.305-0.234-0.36-0.671-0.127-0.974l4.977-6.463
			c0.232-0.303,0.669-0.359,0.972-0.126L163.325,142.811z"/>
	</g>
	<g id="Layer_32">
		
			<linearGradient id="SVGID_27_" gradientUnits="userSpaceOnUse" x1="138.9297" y1="-270.0947" x2="141.3301" y2="-270.0947" gradientTransform="matrix(0.6101 -0.7923 -0.7923 -0.6101 -145.1188 92.6917)">
			<stop  offset="0" style="stop-color:#7F8582"/>
			<stop  offset="0.2181" style="stop-color:#FCFDFB"/>
			<stop  offset="0.5638" style="stop-color:#B3B3B3"/>
			<stop  offset="1" style="stop-color:#F3F3F3"/>
		</linearGradient>
		<polygon fill="url(#SVGID_27_)" stroke="#A8AFA5" stroke-width="0.25" stroke-linecap="round" points="157.41,147.27 
			155.945,149.171 151.34,145.624 152.804,143.724 		"/>
		
			<linearGradient id="SVGID_28_" gradientUnits="userSpaceOnUse" x1="145.7256" y1="-270.0947" x2="148.127" y2="-270.0947" gradientTransform="matrix(0.6101 -0.7923 -0.7923 -0.6101 -145.1188 92.6917)">
			<stop  offset="0" style="stop-color:#7F8582"/>
			<stop  offset="0.2181" style="stop-color:#FCFDFB"/>
			<stop  offset="0.5638" style="stop-color:#B3B3B3"/>
			<stop  offset="1" style="stop-color:#F3F3F3"/>
		</linearGradient>
		<polygon fill="url(#SVGID_28_)" stroke="#A8AFA5" stroke-width="0.25" stroke-linecap="round" points="161.557,141.885 
			160.092,143.787 155.486,140.24 156.949,138.339 		"/>
	</g>
	<g id="Layer_33">
		
			<line fill="none" stroke="#989898" stroke-width="0.5" stroke-linecap="round" stroke-linejoin="round" x1="151.71" y1="145.62" x2="152.963" y2="143.992"/>
		
			<line fill="none" stroke="#989898" stroke-width="0.5" stroke-linecap="round" stroke-linejoin="round" x1="152.076" y1="145.901" x2="153.329" y2="144.273"/>
		
			<line fill="none" stroke="#989898" stroke-width="0.5" stroke-linecap="round" stroke-linejoin="round" x1="152.443" y1="146.183" x2="153.696" y2="144.557"/>
		
			<line fill="none" stroke="#989898" stroke-width="0.5" stroke-linecap="round" stroke-linejoin="round" x1="152.81" y1="146.465" x2="154.062" y2="144.839"/>
		
			<line fill="none" stroke="#989898" stroke-width="0.5" stroke-linecap="round" stroke-linejoin="round" x1="153.177" y1="146.748" x2="154.429" y2="145.121"/>
		
			<line fill="none" stroke="#989898" stroke-width="0.5" stroke-linecap="round" stroke-linejoin="round" x1="153.543" y1="147.03" x2="154.795" y2="145.402"/>
		
			<line fill="none" stroke="#989898" stroke-width="0.5" stroke-linecap="round" stroke-linejoin="round" x1="153.91" y1="147.313" x2="155.162" y2="145.686"/>
		
			<line fill="none" stroke="#989898" stroke-width="0.5" stroke-linecap="round" stroke-linejoin="round" x1="154.276" y1="147.595" x2="155.529" y2="145.968"/>
		
			<line fill="none" stroke="#989898" stroke-width="0.5" stroke-linecap="round" stroke-linejoin="round" x1="154.644" y1="147.878" x2="155.896" y2="146.25"/>
		
			<line fill="none" stroke="#989898" stroke-width="0.5" stroke-linecap="round" stroke-linejoin="round" x1="155.011" y1="148.16" x2="156.263" y2="146.531"/>
		
			<line fill="none" stroke="#989898" stroke-width="0.5" stroke-linecap="round" stroke-linejoin="round" x1="155.377" y1="148.441" x2="156.629" y2="146.814"/>
		
			<line fill="none" stroke="#989898" stroke-width="0.5" stroke-linecap="round" stroke-linejoin="round" x1="155.743" y1="148.724" x2="156.996" y2="147.098"/>
		
			<line fill="none" stroke="#989898" stroke-width="0.5" stroke-linecap="round" stroke-linejoin="round" x1="155.856" y1="140.234" x2="157.109" y2="138.607"/>
		
			<line fill="none" stroke="#989898" stroke-width="0.5" stroke-linecap="round" stroke-linejoin="round" x1="156.223" y1="140.517" x2="157.476" y2="138.89"/>
		
			<line fill="none" stroke="#989898" stroke-width="0.5" stroke-linecap="round" stroke-linejoin="round" x1="156.59" y1="140.799" x2="157.843" y2="139.172"/>
		
			<line fill="none" stroke="#989898" stroke-width="0.5" stroke-linecap="round" stroke-linejoin="round" x1="156.955" y1="141.081" x2="158.209" y2="139.453"/>
		
			<line fill="none" stroke="#989898" stroke-width="0.5" stroke-linecap="round" stroke-linejoin="round" x1="157.322" y1="141.364" x2="158.575" y2="139.736"/>
		
			<line fill="none" stroke="#989898" stroke-width="0.5" stroke-linecap="round" stroke-linejoin="round" x1="157.689" y1="141.646" x2="158.942" y2="140.02"/>
		
			<line fill="none" stroke="#989898" stroke-width="0.5" stroke-linecap="round" stroke-linejoin="round" x1="158.056" y1="141.927" x2="159.308" y2="140.301"/>
		
			<line fill="none" stroke="#989898" stroke-width="0.5" stroke-linecap="round" stroke-linejoin="round" x1="158.422" y1="142.21" x2="159.675" y2="140.583"/>
		
			<line fill="none" stroke="#989898" stroke-width="0.5" stroke-linecap="round" stroke-linejoin="round" x1="158.789" y1="142.492" x2="160.041" y2="140.865"/>
		
			<line fill="none" stroke="#989898" stroke-width="0.5" stroke-linecap="round" stroke-linejoin="round" x1="159.156" y1="142.774" x2="160.408" y2="141.148"/>
		
			<line fill="none" stroke="#989898" stroke-width="0.5" stroke-linecap="round" stroke-linejoin="round" x1="159.522" y1="143.058" x2="160.774" y2="141.43"/>
		
			<line fill="none" stroke="#989898" stroke-width="0.5" stroke-linecap="round" stroke-linejoin="round" x1="159.89" y1="143.339" x2="161.143" y2="141.712"/>
	</g>
	<g id="Layer_30">
		
			<linearGradient id="SVGID_29_" gradientUnits="userSpaceOnUse" x1="144.4629" y1="-270.104" x2="146.5928" y2="-270.104" gradientTransform="matrix(0.6101 -0.7923 -0.7923 -0.6101 -145.1188 92.6917)">
			<stop  offset="0" style="stop-color:#B3B3B3"/>
			<stop  offset="0.1678" style="stop-color:#F3F3F3"/>
		</linearGradient>
		<path fill="url(#SVGID_29_)" d="M154.914,140.604l-0.362,0.486l4.968,3.851l0.367-0.509c0,0,0.516-0.479-0.063-0.961
			c-0.579-0.481-1.925-1.481-1.925-1.481s-0.057-1.018-0.968-1.73C155.892,139.445,154.914,140.604,154.914,140.604z"/>
	</g>
	<g id="Layer_31">
		<line fill="none" stroke="#CDCCCC" stroke-linecap="round" x1="155.659" y1="144.109" x2="156.246" y2="143.345"/>
		<line fill="none" stroke="#CDCCCC" stroke-linecap="round" x1="155.845" y1="144.521" x2="156.692" y2="143.42"/>
		<line fill="none" stroke="#CDCCCC" stroke-linecap="round" x1="156.16" y1="144.763" x2="157.007" y2="143.663"/>
		<line fill="none" stroke="#CDCCCC" stroke-linecap="round" x1="156.606" y1="144.838" x2="157.195" y2="144.075"/>
	</g>
	<g id="Layer_37">
		
			<linearGradient id="SVGID_30_" gradientUnits="userSpaceOnUse" x1="147.6289" y1="-248.478" x2="147.6289" y2="-252.4111" gradientTransform="matrix(0.6101 -0.7923 -0.7923 -0.6101 -145.1188 92.6917)">
			<stop  offset="0" style="stop-color:#1F2524"/>
			<stop  offset="0.2819" style="stop-color:#505755"/>
			<stop  offset="0.2851" style="stop-color:#565C5A"/>
			<stop  offset="0.3218" style="stop-color:#8F9592"/>
			<stop  offset="0.3554" style="stop-color:#BEC2BF"/>
			<stop  offset="0.3851" style="stop-color:#DFE2DF"/>
			<stop  offset="0.4097" style="stop-color:#F4F6F3"/>
			<stop  offset="0.4262" style="stop-color:#FCFDFB"/>
			<stop  offset="0.6342" style="stop-color:#FCFDFB"/>
			<stop  offset="0.7047" style="stop-color:#010101"/>
		</linearGradient>
		<path fill="url(#SVGID_30_)" d="M141.876,126.805c0,0,0.116,1.209,1.033,1.914c0.916,0.706,2.295,0.843,2.295,0.843
			L141.876,126.805z"/>
	</g>
	<g id="Layer_14_copy">
		<path fill="#C93333" stroke="#5C1E11" d="M144.521,128.11c0.228,0.176,0.297,0.469,0.153,0.654l0,0
			c-0.142,0.186-0.443,0.194-0.671,0.019l-1.237-0.953c-0.228-0.175-0.297-0.467-0.153-0.653l0,0
			c0.143-0.186,0.443-0.194,0.671-0.019L144.521,128.11z"/>
	</g>
	<g id="Layer_41">
		<path fill="#13171A" d="M136.218,134.146c0.202,0.157,0.24,0.447,0.085,0.649l-0.345,0.446c-0.155,0.203-0.446,0.241-0.648,0.085
			l-1.375-1.059c-0.202-0.155-0.24-0.446-0.085-0.648l0.344-0.447c0.157-0.202,0.447-0.24,0.649-0.084L136.218,134.146z"/>
	</g>
	<g id="Layer_42">
		<path fill="#13171A" d="M139.619,126.941c0.594,0.456,0.732,1.276,0.306,1.829c-0.425,0.552-1.253,0.629-1.847,0.171
			c-0.596-0.458-0.732-1.277-0.307-1.83C138.196,126.56,139.024,126.482,139.619,126.941z"/>
	</g>
	<g id="Layer_43">
		
			<radialGradient id="SVGID_31_" cx="145.3203" cy="-246.0195" r="0.4333" gradientTransform="matrix(0.6101 -0.7923 -0.7923 -0.6101 -145.1188 92.6917)" gradientUnits="userSpaceOnUse">
			<stop  offset="0" style="stop-color:#B4BBB3"/>
			<stop  offset="1" style="stop-color:#272626"/>
		</radialGradient>
		<circle fill="url(#SVGID_31_)" cx="138.467" cy="127.647" r="0.433"/>
		
			<radialGradient id="SVGID_32_" cx="145.2432" cy="-247.042" r="0.3374" gradientTransform="matrix(0.6101 -0.7923 -0.7923 -0.6101 -145.1188 92.6917)" gradientUnits="userSpaceOnUse">
			<stop  offset="0" style="stop-color:#B4BBB3"/>
			<stop  offset="1" style="stop-color:#272626"/>
		</radialGradient>
		<circle fill="url(#SVGID_32_)" cx="139.229" cy="128.332" r="0.337"/>
	</g>
	<g id="Layer_38">
		
			<linearGradient id="SVGID_33_" gradientUnits="userSpaceOnUse" x1="138.916" y1="-245.7017" x2="138.916" y2="-249.1345" gradientTransform="matrix(0.6101 -0.7923 -0.7923 -0.6101 -145.1188 92.6917)">
			<stop  offset="0" style="stop-color:#3D425A"/>
			<stop  offset="0.4262" style="stop-color:#FCFDFB"/>
			<stop  offset="0.6342" style="stop-color:#FCFDFB"/>
			<stop  offset="1" style="stop-color:#3C423E"/>
		</linearGradient>
		<polygon fill="url(#SVGID_33_)" points="137.661,133.828 136.415,135.446 133.604,133.281 134.852,131.663 		"/>
	</g>
	<g id="Layer_39">
		<path fill="#414A4E" d="M136.494,132.381c0.778,0.6,1.248,1.295,1.05,1.552c-0.197,0.257-0.989-0.021-1.767-0.619
			c-0.779-0.6-1.25-1.294-1.051-1.552C134.925,131.505,135.717,131.782,136.494,132.381z"/>
	</g>
	<g id="Layer_40">
		
			<linearGradient id="SVGID_34_" gradientUnits="userSpaceOnUse" x1="139.8643" y1="-246.3594" x2="139.8643" y2="-248.2583" gradientTransform="matrix(0.6101 -0.7923 -0.7923 -0.6101 -145.1188 92.6917)">
			<stop  offset="0" style="stop-color:#505762"/>
			<stop  offset="0.0121" style="stop-color:#565C67"/>
			<stop  offset="0.1484" style="stop-color:#8F959A"/>
			<stop  offset="0.2737" style="stop-color:#BEC2C4"/>
			<stop  offset="0.3842" style="stop-color:#DFE2E1"/>
			<stop  offset="0.4757" style="stop-color:#F4F6F3"/>
			<stop  offset="0.5369" style="stop-color:#FCFDFB"/>
			<stop  offset="1" style="stop-color:#A3A39C"/>
		</linearGradient>
		<path fill="url(#SVGID_34_)" d="M136.381,132.465c0.416,0.319,0.651,0.711,0.526,0.873s-0.563,0.036-0.979-0.285
			c-0.415-0.319-0.651-0.711-0.525-0.873C135.527,132.017,135.966,132.145,136.381,132.465z"/>
	</g>
	<g id="Layer_44">
		
			<linearGradient id="SVGID_35_" gradientUnits="userSpaceOnUse" x1="137.5146" y1="-240.0313" x2="137.4568" y2="-242.8065" gradientTransform="matrix(0.6101 -0.7923 -0.7923 -0.6101 -145.1188 92.6917)">
			<stop  offset="0" style="stop-color:#DBE6E8"/>
			<stop  offset="1" style="stop-color:#B4BBB3"/>
		</linearGradient>
		<path fill="url(#SVGID_35_)" stroke="#B4BBB3" d="M127.835,132.686c0,0-0.857-0.782-0.128-1.729
			c0.729-0.947,1.591-2.035,1.591-2.035s-0.193-0.539,0.125-0.951c0.316-0.413,0.572-0.239,0.801-0.063
			c0.229,0.176,2.518,1.913,2.518,1.913s0.589,0.722,0.389,0.979c-0.2,0.261-0.985,0.142-1.408,0.693
			c-0.424,0.55-1.597,1.788-1.597,1.788s-0.757,0.511-1.246,0.134L127.835,132.686z"/>
	</g>
	<g id="Layer_45">
		<path fill="#FFFFFF" d="M129.048,133.449c0,0,0.54,0.172,1.06-0.112c0.287-0.158,1.64-1.785,1.64-1.785s0.266-0.324,0.557-0.393
			c0.329-0.077,0.678-0.181,0.83-0.282c0.151-0.104-0.009-0.542-0.009-0.542s-0.238,0.182-0.305,0.301
			c-0.068,0.119-0.775,0.279-0.996,0.474c-0.223,0.193-1.489,1.457-1.747,1.793C129.817,133.237,129.048,133.449,129.048,133.449z"
			/>
	</g>
</g>
</svg>
