<?xml version="1.0" encoding="utf-8"?>
<!-- Generator: Adobe Illustrator 14.0.0, SVG Export Plug-In . SVG Version: 6.00 Build 43363)  -->
<!DOCTYPE svg PUBLIC "-//W3C//DTD SVG 1.1//EN" "http://www.w3.org/Graphics/SVG/1.1/DTD/svg11.dtd">
<svg version="1.1" xmlns="http://www.w3.org/2000/svg" xmlns:xlink="http://www.w3.org/1999/xlink" x="0px" y="0px" width="200px"
	 height="200px" viewBox="0 0 200 200" enable-background="new 0 0 200 200" xml:space="preserve">
<g id="Layer_1">
	<radialGradient id="SVGID_1_" cx="100.0122" cy="100.1523" r="96.0188" gradientUnits="userSpaceOnUse">
		<stop  offset="0" style="stop-color:#FFFFFF"/>
		<stop  offset="1" style="stop-color:#923D29"/>
	</radialGradient>
	<path fill="url(#SVGID_1_)" stroke="#000000" stroke-width="5" d="M196.031,184.171c0,6.627-5.373,12-12,12H15.993
		c-6.627,0-12-5.373-12-12V16.133c0-6.627,5.373-12,12-12h168.038c6.627,0,12,5.373,12,12V184.171z"/>
</g>
<g id="Layer_2">
	<g>
		<circle fill="#C49A6C" stroke="#000000" stroke-width="3" cx="42.743" cy="45.301" r="30.211"/>
		<circle fill="#FFFFFF" stroke="#000000" stroke-width="3" cx="33.376" cy="33.123" r="5.386"/>
		<circle fill="#FFFFFF" stroke="#000000" stroke-width="3" cx="52.814" cy="33.123" r="5.386"/>
		<path fill="none" stroke="#000000" stroke-width="5" d="M56.327,65.739c0-8.112-6.075-14.677-13.583-14.677"/>
		<path fill="none" stroke="#000000" stroke-width="5" d="M29.863,65.739c0-8.122,5.763-14.693,12.885-14.693"/>
	</g>
	<g>
		<circle fill="#C49A6C" stroke="#000000" stroke-width="3" cx="42.739" cy="157.055" r="30.211"/>
		<circle fill="#FFFFFF" stroke="#000000" stroke-width="3" cx="33.371" cy="144.877" r="5.386"/>
		<circle fill="#FFFFFF" stroke="#000000" stroke-width="3" cx="52.809" cy="144.877" r="5.386"/>
		<path fill="none" stroke="#000000" stroke-width="5" d="M56.322,177.493c0-8.112-6.075-14.678-13.583-14.678"/>
		<path fill="none" stroke="#000000" stroke-width="5" d="M29.858,177.493c0-8.121,5.763-14.693,12.885-14.693"/>
	</g>
	<g>
		<circle fill="#C49A6C" stroke="#000000" stroke-width="3" cx="156.088" cy="157.056" r="30.211"/>
		<circle fill="#FFFFFF" stroke="#000000" stroke-width="3" cx="146.721" cy="144.878" r="5.387"/>
		<circle fill="#FFFFFF" stroke="#000000" stroke-width="3" cx="166.158" cy="144.878" r="5.387"/>
		<path fill="none" stroke="#000000" stroke-width="5" d="M169.671,177.493c0-8.111-6.075-14.677-13.583-14.677"/>
		<path fill="none" stroke="#000000" stroke-width="5" d="M143.207,177.493c0-8.121,5.764-14.692,12.885-14.692"/>
	</g>
</g>
<g id="Layer_2_copy">
</g>
<g id="Layer_2_copy_2">
	<g>
		<circle fill="#C49A6C" stroke="#000000" stroke-width="3" cx="156.087" cy="45.301" r="30.211"/>
		<circle fill="#FFFFFF" stroke="#000000" stroke-width="3" cx="146.72" cy="33.123" r="5.387"/>
		<circle fill="#FFFFFF" stroke="#000000" stroke-width="3" cx="166.157" cy="33.123" r="5.387"/>
		<path fill="none" stroke="#000000" stroke-width="5" d="M169.67,65.739c0-8.112-6.075-14.677-13.583-14.677"/>
		<path fill="none" stroke="#000000" stroke-width="5" d="M143.206,65.739c0-8.122,5.764-14.693,12.885-14.693"/>
	</g>
	<g>
		<circle fill="#C49A6C" stroke="#000000" stroke-width="3" cx="100" cy="96.634" r="30.211"/>
		<circle fill="#FFFFFF" stroke="#000000" stroke-width="3" cx="90.633" cy="84.457" r="5.387"/>
		<circle fill="#FFFFFF" stroke="#000000" stroke-width="3" cx="110.07" cy="84.457" r="5.387"/>
		<path fill="none" stroke="#000000" stroke-width="5" d="M113.583,117.072c0-8.111-6.075-14.677-13.583-14.677"/>
		<path fill="none" stroke="#000000" stroke-width="5" d="M87.119,117.072c0-8.121,5.764-14.692,12.885-14.692"/>
	</g>
</g>
</svg>
