<?xml version="1.0" encoding="utf-8"?>
<!-- Generator: Adobe Illustrator 14.0.0, SVG Export Plug-In . SVG Version: 6.00 Build 43363)  -->
<!DOCTYPE svg PUBLIC "-//W3C//DTD SVG 1.1//EN" "http://www.w3.org/Graphics/SVG/1.1/DTD/svg11.dtd">
<svg version="1.1" xmlns="http://www.w3.org/2000/svg" xmlns:xlink="http://www.w3.org/1999/xlink" x="0px" y="0px" width="200px"
	 height="200px" viewBox="0 0 200 200" enable-background="new 0 0 200 200" xml:space="preserve">
<g id="Layer_1">
	<radialGradient id="SVGID_1_" cx="100.0122" cy="100.1523" r="96.0188" gradientUnits="userSpaceOnUse">
		<stop  offset="0" style="stop-color:#FFFFFF"/>
		<stop  offset="1" style="stop-color:#84A84D"/>
	</radialGradient>
	<path fill="url(#SVGID_1_)" stroke="#000000" stroke-width="5" d="M196.031,184.171c0,6.627-5.373,12-12,12H15.993
		c-6.627,0-12-5.373-12-12V16.133c0-6.627,5.373-12,12-12h168.038c6.627,0,12,5.373,12,12V184.171z"/>
</g>
<g id="Layer_2">
	<path id="path3997" fill="#2B3990" d="M63.803,117.528L43.815,147.36c-8.504,13.056-7.375,30.53,15.813,28.64
		c4.769-0.389,76.967,0,76.967,0c30.264,2.595,26.717-16.986,19.092-26.849l-20.584-31.324L63.803,117.528z"/>
	<path id="rect3162" opacity="0.5" fill="#2B3990" enable-background="new    " d="M123.979,29.987l-49.973,0.04
		c-1.01,0.008-1.931,0.598-2.316,1.531s-0.161,2.03,0.549,2.749c3.833,3.762,5.249,6.706,5.89,10.01
		c0.641,3.303,0.386,7.143,0.431,12.13l0.276,30.071l-39.533,59.199c-0.026,0.037-0.053,0.077-0.078,0.116
		c-5.152,8.591-6.167,17.377-3.376,24.145c2.773,6.724,9.551,11.089,18.253,10.638c0.056-0.003,0.103,0.003,0.159,0l91.624,0.079
		c9.35-0.039,16.439-4.685,18.844-11.816c2.387-7.082,0.252-16.005-6.635-24.772l-0.117-0.195l-37.412-57.315l-0.707-30.109
		c0-0.145,0.002-0.25,0-0.393c0-0.025,0-0.053,0-0.078c-0.059-4.736-0.324-8.461,0.236-11.659c0.58-3.316,1.928-6.257,5.693-10.089
		c0.715-0.724,0.904-1.811,0.51-2.749C125.901,30.582,124.999,29.98,123.979,29.987z M118.956,35.012
		c-1.928,2.85-3.316,5.671-3.808,8.479c-0.575,3.28-0.448,6.577-0.354,10.089h-11.188c-0.092-0.005-0.182-0.005-0.275,0
		c-1.387,0.076-2.432,1.244-2.354,2.631c0.075,1.387,1.242,2.47,2.63,2.394h11.266l0.473,19.157h-11.738
		c-0.092-0.004-0.182-0.004-0.275,0c-1.387,0.076-2.432,1.244-2.354,2.631c0.075,1.387,1.242,2.47,2.63,2.395h11.855l0.117,4.671
		c0.01,0.458,0.146,0.907,0.393,1.295l8.951,13.701H112.87c-0.09-0.005-0.183-0.005-0.273,0c-1.388,0.077-2.432,1.243-2.355,2.63
		c0.075,1.389,1.242,2.472,2.629,2.396h13.701c0.5,0.006,0.967-0.132,1.375-0.394l9.854,15.115h-11.582
		c-0.078-0.004-0.156-0.004-0.236,0c-1.387,0.064-2.459,1.242-2.395,2.63c0.066,1.388,1.244,2.459,2.631,2.396h13.701
		c0.361,0.005,0.701-0.098,1.02-0.237l9.541,14.604h-10.875c-0.078-0.003-0.156-0.003-0.234,0c-1.389,0.065-2.461,1.242-2.395,2.63
		c0.064,1.387,1.242,2.46,2.629,2.395h13.701c0.133,0.003,0.264-0.021,0.393-0.04l0.195,0.274c0.037,0.069,0.076,0.135,0.119,0.198
		c6.285,7.918,7.658,15.198,5.967,20.217c-1.691,5.018-6.332,8.367-14.133,8.401l-91.744-0.079c-0.051-0.003-0.104-0.003-0.157,0
		c-7.084,0.417-11.434-2.614-13.465-7.538c-2.03-4.922-1.46-12.089,3.062-19.627l39.885-59.789c0.282-0.417,0.433-0.91,0.433-1.414
		l-0.275-30.816c-0.044-4.765,0.264-8.837-0.549-13.033c-0.538-2.773-1.944-5.538-3.888-8.323L118.956,35.012z"/>
	
		<path id="path2388" marker-end="none" marker-mid="none" marker-start="none" opacity="0.25" fill="#41803C" stroke="#010101" stroke-width="8" stroke-linecap="round" stroke-linejoin="round" enable-background="new    " d="
		M74.012,32.511c8.208,8.059,6.968,14.151,7.058,23.905l0.282,30.805l-39.977,59.884c-9.673,16.129-3.129,31.91,12.738,30.977
		l91.758,0.092c17.152-0.071,23.414-15.963,10.121-32.712l-37.92-58.091l-0.713-30.854c-0.09-9.754-1.439-15.823,6.619-24.03
		L74.012,32.511z"/>
	
		<path id="path3181" marker-end="none" marker-mid="none" marker-start="none" opacity="0.25" fill="#2B3990" enable-background="new    " d="
		M74.101,32.511c8.227,8.059,6.984,14.151,7.074,23.905l0.282,30.805l-40.071,59.884c-9.697,16.129-3.137,31.91,12.769,30.977
		l91.973,0.092c17.193-0.071,23.471-15.963,10.148-32.712L118.265,87.37l-0.715-30.854c-0.09-9.754-1.443-15.823,6.635-24.03
		L74.101,32.511z"/>
	<path id="path3220" opacity="0.6654" fill="#1C75BC" enable-background="new    " d="M57.241,171.523
		c-8.827,0.823-15.824-5.302-10.143-16.107l40.572-65.632l-0.298-43.555c0.028-2.983-0.351-5.966-2.685-8.95
		c5.109,2.407,9.735,4.976,10.143,8.95l0.596,45.942c0.135,10.32-15.889,31.647-22.939,44.116
		C62.891,153.258,50.192,165.845,57.241,171.523z"/>
	<path id="path3252" display="none" fill="#46AE49" d="M145.876,170.98c8.826,0.82,12.242-5.603,6.563-16.409L111.866,88.94
		l0.299-43.555c-0.029-2.983,0.352-5.965,2.684-8.949c-5.107,2.408-6.453,4.976-6.86,8.949l-0.298,45.644
		c-0.067,10.319,17.082,30.753,24.133,43.222C141.419,151.222,152.925,165.299,145.876,170.98z"/>
</g>
</svg>
