<?xml version="1.0" encoding="utf-8"?>
<!-- Generator: Adobe Illustrator 14.0.0, SVG Export Plug-In . SVG Version: 6.00 Build 43363)  -->
<!DOCTYPE svg PUBLIC "-//W3C//DTD SVG 1.1//EN" "http://www.w3.org/Graphics/SVG/1.1/DTD/svg11.dtd">
<svg version="1.1" xmlns="http://www.w3.org/2000/svg" xmlns:xlink="http://www.w3.org/1999/xlink" x="0px" y="0px" width="200px"
	 height="200px" viewBox="0 0 200 200" enable-background="new 0 0 200 200" xml:space="preserve">
<g id="Layer_1">
	<radialGradient id="SVGID_1_" cx="100.0122" cy="100.1523" r="96.0188" gradientUnits="userSpaceOnUse">
		<stop  offset="0" style="stop-color:#FFFFFF"/>
		<stop  offset="1" style="stop-color:#923D29"/>
	</radialGradient>
	<path fill="url(#SVGID_1_)" stroke="#000000" stroke-width="5" d="M196.031,184.171c0,6.627-5.373,12-12,12H15.993
		c-6.627,0-12-5.373-12-12V16.133c0-6.627,5.373-12,12-12h168.038c6.627,0,12,5.373,12,12V184.171z"/>
</g>
<g id="Layer_2">
	<g>
		<circle fill="#C49A6C" stroke="#000000" stroke-width="3" cx="56.557" cy="53.634" r="30.211"/>
		<circle fill="#FFFFFF" stroke="#000000" stroke-width="3" cx="47.19" cy="41.456" r="5.386"/>
		<circle fill="#FFFFFF" stroke="#000000" stroke-width="3" cx="66.628" cy="41.456" r="5.386"/>
		<path fill="none" stroke="#000000" stroke-width="5" d="M70.14,74.072c0-8.112-6.075-14.677-13.583-14.677"/>
		<path fill="none" stroke="#000000" stroke-width="5" d="M43.676,74.072c0-8.122,5.763-14.693,12.885-14.693"/>
	</g>
	<g>
		<circle fill="#C49A6C" stroke="#000000" stroke-width="3" cx="55.619" cy="142.937" r="30.211"/>
		<circle fill="#FFFFFF" stroke="#000000" stroke-width="3" cx="46.252" cy="130.759" r="5.386"/>
		<circle fill="#FFFFFF" stroke="#000000" stroke-width="3" cx="65.69" cy="130.759" r="5.386"/>
		<path fill="none" stroke="#000000" stroke-width="5" d="M69.203,163.375c0-8.112-6.075-14.678-13.583-14.678"/>
		<path fill="none" stroke="#000000" stroke-width="5" d="M42.739,163.375c0-8.121,5.763-14.693,12.885-14.693"/>
	</g>
	<g>
		<circle fill="#C49A6C" stroke="#000000" stroke-width="3" cx="142.505" cy="142.938" r="30.211"/>
		<circle fill="#FFFFFF" stroke="#000000" stroke-width="3" cx="133.138" cy="130.76" r="5.387"/>
		<circle fill="#FFFFFF" stroke="#000000" stroke-width="3" cx="152.575" cy="130.76" r="5.387"/>
		<path fill="none" stroke="#000000" stroke-width="5" d="M156.088,163.375c0-8.111-6.075-14.677-13.583-14.677"/>
		<path fill="none" stroke="#000000" stroke-width="5" d="M129.624,163.375c0-8.121,5.764-14.692,12.885-14.692"/>
	</g>
</g>
<g id="Layer_2_copy">
</g>
<g id="Layer_2_copy_2">
	<g>
		<circle fill="#C49A6C" stroke="#000000" stroke-width="3" cx="143.442" cy="53.634" r="30.211"/>
		<circle fill="#FFFFFF" stroke="#000000" stroke-width="3" cx="134.075" cy="41.457" r="5.387"/>
		<circle fill="#FFFFFF" stroke="#000000" stroke-width="3" cx="153.513" cy="41.457" r="5.387"/>
		<path fill="none" stroke="#000000" stroke-width="5" d="M157.025,74.073c0-8.112-6.075-14.677-13.583-14.677"/>
		<path fill="none" stroke="#000000" stroke-width="5" d="M130.562,74.073c0-8.122,5.764-14.693,12.885-14.693"/>
	</g>
</g>
</svg>
