<?xml version="1.0" encoding="utf-8"?>
<!-- Generator: Adobe Illustrator 14.0.0, SVG Export Plug-In . SVG Version: 6.00 Build 43363)  -->
<!DOCTYPE svg PUBLIC "-//W3C//DTD SVG 1.1//EN" "http://www.w3.org/Graphics/SVG/1.1/DTD/svg11.dtd">
<svg version="1.1" xmlns="http://www.w3.org/2000/svg" xmlns:xlink="http://www.w3.org/1999/xlink" x="0px" y="0px" width="200px"
	 height="200px" viewBox="0 0 200 200" enable-background="new 0 0 200 200" xml:space="preserve">
<g id="Layer_1">
	<radialGradient id="SVGID_1_" cx="100.0122" cy="100.1523" r="96.0188" gradientUnits="userSpaceOnUse">
		<stop  offset="0" style="stop-color:#FFFFFF"/>
		<stop  offset="1" style="stop-color:#84A84D"/>
	</radialGradient>
	<path fill="url(#SVGID_1_)" stroke="#000000" stroke-width="5" d="M196.031,184.171c0,6.627-5.373,12-12,12H15.993
		c-6.627,0-12-5.373-12-12V16.133c0-6.627,5.373-12,12-12h168.038c6.627,0,12,5.373,12,12V184.171z"/>
</g>
<g id="Layer_2">
	<path id="path8" d="M196.254,168.058l1.052,0.083v14.016v5.286l-13.274,8.729H119.09H40.873v-14.957v-14.956l2.327,0.139
		l2.326,0.138l0.443-0.11c0.295-0.074,1.09-0.074,2.382,0c1.292,0.073,2.05,0.092,2.271,0.056c0.222-0.038,0.849-0.038,1.883,0
		c1.035,0.036,2.364,0.055,3.988,0.055s2.456-0.019,2.493-0.055c0.037-0.038,1.606-0.038,4.708,0
		c3.102,0.036,4.746,0.055,4.93,0.055c0.185,0,0.702,0,1.551,0s1.606,0.018,2.271,0.057c0.665,0.036,1.2,0.056,1.606,0.056
		c0.406,0,1.31-0.02,2.714-0.056c1.404-0.039,2.235-0.019,2.493,0.056c0.258,0.072,0.673,0.045,1.247-0.083
		c0.573-0.131,0.867-0.25,0.886-0.36l0.028-0.167l5.152,0.027c3.434,0.018,5.927,0.083,7.478,0.194s2.363,0.184,2.438,0.222
		l0.11,0.055l0.72-0.11c0.479-0.074,0.941-0.074,1.385,0c0.443,0.073,1.182,0.128,2.215,0.167c1.033,0.036,2.383,0.092,4.044,0.166
		c1.662,0.072,3.231,0.072,4.708,0c1.477-0.074,2.309-0.13,2.493-0.166l0.277-0.057l-0.388-0.553
		c-0.258-0.371-0.582-0.693-0.97-0.97c-0.388-0.277-0.685-0.564-0.887-0.859s-0.351-0.48-0.442-0.554
		c-0.092-0.074-0.332-0.379-0.721-0.913c-0.388-0.537-0.684-0.98-0.887-1.329c-0.202-0.353-0.34-0.731-0.415-1.136l-0.11-0.61
		l0.359-0.471c0.241-0.314,0.452-0.546,0.638-0.692c0.185-0.149,0.554-0.554,1.107-1.219s1.255-1.256,2.105-1.773
		c0.85-0.517,1.356-0.785,1.522-0.802c0.166-0.019,0.258,0.009,0.277,0.083c0.02,0.072,0.103,0.101,0.25,0.083l0.221-0.028
		l0.222-0.276c0.147-0.186,0.352-0.389,0.609-0.609l0.388-0.332l0.97-0.25l0.97-0.249l0.166-0.332
		c0.11-0.222,0.285-0.537,0.526-0.942c0.24-0.406,0.423-0.664,0.554-0.774c0.129-0.111,0.359-0.408,0.692-0.888
		c0.332-0.48,0.554-0.868,0.665-1.163l0.166-0.443l-0.443-0.388c-0.296-0.26-0.388-0.608-0.277-1.052
		c0.111-0.442,0.452-1.119,1.025-2.021c0.572-0.906,1.219-1.773,1.938-2.604c0.72-0.83,1.219-1.495,1.496-1.994
		c0.276-0.498,0.617-1.024,1.024-1.578s0.684-0.878,0.831-0.969c0.147-0.095,0.305-0.269,0.471-0.527
		c0.166-0.26,0.49-0.703,0.97-1.329c0.479-0.629,0.822-1.063,1.024-1.302c0.203-0.24,0.396-0.427,0.582-0.555
		c0.185-0.129,0.36-0.323,0.526-0.581c0.166-0.26,0.581-0.794,1.246-1.606c0.664-0.814,1.116-1.34,1.357-1.578
		c0.24-0.241,0.601-0.546,1.08-0.915l0.72-0.554l0.498-0.055c0.333-0.038,0.591-0.047,0.776-0.028l0.277,0.028l-0.36-0.776
		c-0.241-0.517-0.305-1.071-0.194-1.661c0.11-0.593,0.332-1.146,0.665-1.662l0.499-0.775l-0.167-0.609
		c-0.11-0.407-0.388-1.108-0.83-2.104c-0.444-0.998-0.776-1.829-0.998-2.494c-0.222-0.664-0.518-1.717-0.886-3.156
		c-0.369-1.44-0.573-2.235-0.609-2.382l-0.056-0.223l-0.499-0.553c-0.332-0.372-0.794-1.072-1.385-2.106
		c-0.59-1.035-0.922-1.735-0.997-2.104c-0.074-0.37-0.11-0.998-0.11-1.884c0-0.887,0.019-1.514,0.056-1.883l0.055-0.555l-0.36-0.139
		c-0.24-0.092-0.507-0.184-0.803-0.276l-0.443-0.14l-0.222-0.359c-0.146-0.24-0.268-0.426-0.359-0.555l-0.139-0.193l0.166-1.384
		c0.111-0.924,0.259-1.846,0.443-2.77c0.186-0.924,0.296-1.606,0.332-2.05c0.036-0.444-0.027-0.821-0.193-1.136l-0.25-0.471
		l-0.775,0.111l-0.775,0.11l-0.305-0.471c-0.202-0.314-0.507-0.913-0.914-1.8c-0.406-0.886-0.646-1.403-0.72-1.551l-0.111-0.221
		l0.056-1.329c0.036-0.887-0.047-1.542-0.249-1.967c-0.203-0.425-0.463-0.702-0.775-0.832l-0.471-0.194l-0.333-2.88
		c-0.222-1.921-0.304-2.992-0.249-3.213l0.083-0.333l0.333-0.25c0.221-0.166,0.756-0.471,1.605-0.914
		c0.851-0.443,1.459-0.72,1.828-0.831s0.867-0.194,1.496-0.25l0.941-0.083l-0.249-0.832c-0.166-0.554-0.379-1.385-0.637-2.493
		s-0.573-2.807-0.942-5.096c-0.368-2.289-0.59-3.749-0.664-4.376c-0.075-0.628-0.056-2.475,0.055-5.54
		c0.111-3.065,0.333-5.374,0.665-6.924c0.332-1.551,0.637-2.761,0.914-3.629c0.276-0.868,0.479-1.44,0.609-1.717
		c0.13-0.277,0.332-0.757,0.609-1.441c0.277-0.683,0.684-1.367,1.219-2.049s0.905-1.209,1.107-1.579l0.306-0.554l0.913-0.332
		l0.914-0.333l-0.166-0.388c-0.111-0.259-0.222-0.443-0.332-0.554c-0.111-0.11-0.194-0.388-0.25-0.831l-0.082-0.665l0.359-0.111
		c0.241-0.073,0.462-0.249,0.665-0.526c0.202-0.277,0.435-0.489,0.692-0.637c0.258-0.147,0.545-0.268,0.858-0.36l0.471-0.138
		l0.11-0.997c0.075-0.665,0.075-1.385,0-2.16l-0.11-1.164l-0.027-0.027c-0.02-0.019-0.535-0.129-1.551-0.333l-1.524-0.305
		l0.167-0.72c0.11-0.48,0.406-1.606,0.887-3.379c0.479-1.773,0.812-3.103,0.997-3.989l0.276-1.33l0.333-0.498
		c0.221-0.333,0.544-0.803,0.969-1.413c0.424-0.609,0.822-1.118,1.19-1.523c0.369-0.406,0.573-0.655,0.609-0.748l0.056-0.138
		l1.496-0.471c0.997-0.313,1.847-0.507,2.548-0.582c0.701-0.073,1.736-0.055,3.102,0.056c1.366,0.111,2.789,0.425,4.266,0.941
		c1.477,0.517,2.429,0.933,2.854,1.246c0.424,0.314,0.775,0.628,1.053,0.942c0.276,0.314,0.479,0.572,0.608,0.776
		c0.131,0.203,0.342,0.859,0.638,1.966c0.296,1.108,0.608,2.548,0.941,4.321l0.498,2.659l-0.443,0.388
		c-0.296,0.259-0.554,0.646-0.775,1.163c-0.221,0.517-0.525,1.098-0.914,1.745l-0.582,0.969l0.5,0.083l0.498,0.083l-0.11,0.304
		c-0.074,0.204-0.297,0.416-0.665,0.637c-0.369,0.221-0.664,0.342-0.887,0.36l-0.332,0.028l-0.25,1.274
		c-0.166,0.849-0.193,1.588-0.083,2.216c0.11,0.627,0.203,1.311,0.277,2.049c0.074,0.738,0.064,1.136-0.027,1.191l-0.14,0.083
		l-0.415-0.083c-0.276-0.055-0.479-0.295-0.608-0.72l-0.193-0.638l-0.194,0.083c-0.131,0.055-0.352,0.277-0.665,0.665
		s-0.673,0.646-1.08,0.775l-0.609,0.194l0.055,0.138c0.037,0.093,0.306,0.277,0.804,0.554c0.498,0.277,0.877,0.619,1.136,1.025
		c0.257,0.405,0.442,0.904,0.555,1.495l0.165,0.886l-0.277,0.72l-0.275,0.72l0.442,0.609c0.295,0.406,0.462,0.831,0.498,1.274
		l0.056,0.665l0.221,0.167c0.148,0.111,0.314,0.536,0.5,1.274c0.185,0.738,0.359,1.367,0.525,1.883l0.25,0.776l0.719-0.222
		l0.721-0.222l-0.36-1.218c-0.239-0.813-0.415-1.385-0.525-1.718s-0.166-0.646-0.166-0.942v-0.443l0.748-1.136
		c0.498-0.757,0.886-1.347,1.162-1.772c0.277-0.425,0.721-1.126,1.33-2.105c0.61-0.979,0.95-1.523,1.024-1.634l0.111-0.167
		l0.554-0.166c0.369-0.11,0.684-0.185,0.942-0.222l0.387-0.055l0.36-0.582c0.24-0.388,0.684-1.201,1.33-2.438
		c0.645-1.237,1.052-2.012,1.219-2.326c0.165-0.314,0.507-0.951,1.023-1.911c0.519-0.959,0.915-1.736,1.191-2.326l0.415-0.887
		l-0.388,0.139c-0.257,0.092-0.489,0.037-0.691-0.166c-0.203-0.204-0.25-0.545-0.139-1.025c0.111-0.48,0.175-0.757,0.194-0.832
		l0.027-0.11l0.25-0.11c0.165-0.074,0.517-0.656,1.052-1.745c0.534-1.09,0.913-1.625,1.136-1.606
		c0.222,0.018,0.341,0.101,0.359,0.249l0.028,0.222l0.138-0.36c0.092-0.24,0.222-0.388,0.388-0.443l0.25-0.083l-0.14-2.215
		l-0.138-2.216l0.665-0.083l0.665-0.083l0.415,0.638c0.276,0.425,0.573,0.868,0.887,1.329c0.313,0.461,0.507,0.702,0.581,0.72
		l0.111,0.028l0.249-0.609c0.166-0.406,0.756-1.69,1.772-3.851l1.522-3.24h0.555c0.369,0,0.618,0.046,0.748,0.139l0.193,0.139
		l0.056,0.443c0.036,0.295-0.02,0.572-0.166,0.831c-0.146,0.258-0.379,0.692-0.692,1.302c-0.313,0.609-0.554,1.071-0.721,1.384
		c-0.166,0.314-0.617,1.247-1.356,2.798l-1.108,2.327l0.11,0.775c0.075,0.517,0.111,0.905,0.111,1.164v0.388l0.083,0.027
		c0.056,0.019,0.342,0.028,0.858,0.028c0.519,0,0.971,0.176,1.358,0.526l0.581,0.526l0.055,0.609
		c0.037,0.406-0.351,1.477-1.163,3.213c-0.812,1.735-1.19,3.832-1.136,6.287c0.057,2.456,0.027,3.702-0.083,3.739l-0.165,0.055
		l-0.25-0.083c-0.166-0.055-0.324-0.231-0.471-0.526l-0.221-0.444l-0.112,0.333c-0.073,0.222-0.165,0.831-0.275,1.828
		c-0.112,0.997-0.148,1.533-0.112,1.606c0.037,0.073,0.056,0.24,0.056,0.499v0.388l-0.637,0.914
		c-0.424,0.609-0.794,1.145-1.107,1.606c-0.314,0.461-0.646,0.923-0.998,1.385c-0.352,0.461-0.802,0.969-1.356,1.523
		c-0.554,0.554-0.971,0.914-1.246,1.08l-0.416,0.25l0.166,0.443c0.11,0.295,0.463,0.813,1.053,1.551s1.044,1.301,1.356,1.689
		c0.314,0.388,0.5,0.627,0.555,0.72l0.083,0.139l-0.167,1.107c-0.11,0.739-0.239,1.458-0.388,2.161l-0.221,1.052l-0.36,0.194
		c-0.241,0.129-0.525,0.194-0.858,0.194h-0.498l-1.081-1.246l-1.08-1.246v0.831c0,0.554-0.056,1.422-0.166,2.604
		c-0.111,1.182-0.296,2.012-0.555,2.493l-0.388,0.72l0.167,0.665c0.11,0.443,0.277,1.053,0.498,1.828
		c0.223,0.776,0.092,1.901-0.388,3.379c-0.479,1.477-0.913,2.502-1.302,3.074l-0.582,0.859l-0.331,0.055
		c-0.223,0.037-0.915-0.009-2.078-0.139s-1.781-0.083-1.855,0.139l-0.111,0.332l0.027,0.277c0.021,0.184,0.269,0.313,0.748,0.388
		l0.721,0.11l0.083,0.554c0.055,0.37,0.176,1.385,0.36,3.046c0.186,1.662,0.296,2.697,0.332,3.102c0.036,0.406,0.036,0.721,0,0.942
		c-0.036,0.222-0.055,0.647-0.055,1.274v0.942l-0.416,0.471c-0.277,0.313-0.656,0.692-1.136,1.136
		c-0.479,0.442-0.867,0.692-1.163,0.747l-0.443,0.083l0.193,0.554c0.131,0.37,0.426,0.896,0.888,1.579
		c0.462,0.682,0.775,1.182,0.941,1.496c0.165,0.313,0.341,0.729,0.525,1.246c0.186,0.517,0.408,1.421,0.665,2.713
		c0.259,1.292,0.333,2.642,0.221,4.045c-0.11,1.402-0.322,2.52-0.636,3.35c-0.313,0.832-0.59,1.404-0.831,1.719l-0.36,0.47
		l-0.222,2.052c-0.147,1.365-0.147,3.359,0,5.982c0.147,2.62,0.167,5.705,0.055,9.251c-0.11,3.545-0.331,5.76-0.664,6.647
		c-0.332,0.886-0.656,1.523-0.97,1.91c-0.313,0.388-0.719,0.867-1.219,1.44c-0.498,0.571-0.877,1.484-1.136,2.742
		c-0.257,1.255-0.645,3.139-1.162,5.65c-0.519,2.51-0.812,3.895-0.887,4.153c-0.074,0.259-0.185,1.034-0.332,2.327l-0.222,1.938
		l0.443,0.5c0.296,0.331,0.424,1.439,0.388,3.323l-0.056,2.824l-0.471,0.471c-0.313,0.314-0.582,0.5-0.803,0.555l-0.333,0.083
		l0.221,1.772l0.223,1.773l0.305,0.165c0.202,0.11,0.34,0.277,0.415,0.499c0.074,0.222,0.103,0.57,0.083,1.053l-0.027,0.72
		l0.36,0.223c0.24,0.146,0.507,0.349,0.803,0.608c0.296,0.259,0.526,0.488,0.693,0.692l0.248,0.306l0.11,0.027
		c0.075,0.017,0.167-0.057,0.277-0.223c0.11-0.165,0.452-0.24,1.025-0.222l0.858,0.027l0.139,0.277
		c0.091,0.184,0.618,0.342,1.578,0.471c0.962,0.128,1.663,0.157,2.104,0.083c0.444-0.074,0.868-0.054,1.275,0.057l0.608,0.166
		l0.277-0.193c0.186-0.131,0.352-0.205,0.499-0.223l0.222-0.027l0.277,0.11c0.185,0.073,0.331,0.11,0.442,0.11
		s0.923,0.009,2.438,0.029c1.515,0.016,2.279,0.082,2.298,0.193l0.029,0.165l0.027-0.11c0.019-0.074,0.241-0.166,0.664-0.277
		c0.424-0.11,0.684-0.193,0.775-0.248l0.14-0.083l0.498,0.11l0.498,0.11l0.11-0.166c0.075-0.11,0.241-0.177,0.5-0.194l0.388-0.027
		v0.111c0,0.073,0.146,0.156,0.442,0.249l0.443,0.138l0.886-0.166c0.59-0.11,0.906-0.165,0.941-0.165
		c0.038,0,0.426,0.018,1.165,0.055s1.403,0.11,1.994,0.223c0.59,0.11,1.115,0.099,1.577-0.029c0.463-0.129,0.775-0.221,0.942-0.276
		l0.249-0.082l0.887,0.165c0.59,0.11,1.033,0.23,1.329,0.36l0.443,0.193l0.138-0.055c0.093-0.038,0.223-0.139,0.388-0.306
		c0.167-0.165,0.306-0.23,0.417-0.193c0.11,0.037,0.387,0.018,0.831-0.055c0.442-0.075,0.719-0.149,0.83-0.223
		c0.111-0.074,0.518-0.093,1.219-0.055c0.7,0.036,1.2,0.119,1.495,0.249l0.444,0.193l0.276-0.082
		c0.186-0.056,0.518-0.065,0.997-0.028s0.96,0.056,1.439,0.056h0.721l0.11,0.083c0.075,0.055,0.111,0.119,0.111,0.194
		c0,0.072,0.11,0.146,0.333,0.221l0.331,0.11l0.61-0.027c0.406-0.019,0.904-0.047,1.495-0.083
		C194.905,167.992,195.553,168.003,196.254,168.058z"/>
	<polygon points="40.873,166.258 32.799,166.258 28.115,167.302 22.26,166.258 17.811,166.779 13.361,167.302 9.614,167.302 
		5.867,167.302 5.121,189.225 11.862,195.426 40.873,195.426 52.705,178.075 	"/>
</g>
</svg>
