<?xml version="1.0" encoding="utf-8"?>
<!-- Generator: Adobe Illustrator 14.0.0, SVG Export Plug-In . SVG Version: 6.00 Build 43363)  -->
<!DOCTYPE svg PUBLIC "-//W3C//DTD SVG 1.1//EN" "http://www.w3.org/Graphics/SVG/1.1/DTD/svg11.dtd">
<svg version="1.1" xmlns="http://www.w3.org/2000/svg" xmlns:xlink="http://www.w3.org/1999/xlink" x="0px" y="0px" width="200px"
	 height="200px" viewBox="0 0 200 200" enable-background="new 0 0 200 200" xml:space="preserve">
<filter  height="140%" width="140%" y="-20%" x="-20%" id="AI_BevelShadow_1">
	<feGaussianBlur  in="SourceAlpha" result="blur" stdDeviation="4"></feGaussianBlur>
	<feOffset  dx="4" dy="4" in="blur" result="offsetBlur"></feOffset>
	
		<feSpecularLighting  style="lighting-color:white" in="blur" result="specOut" surfaceScale="5" specularConstant="1" specularExponent="10">
		<fePointLight  y="-10000" x="-5000" z="-20000"></fePointLight>
	</feSpecularLighting>
	<feComposite  in="specOut" in2="SourceAlpha" result="specOut" operator="in"></feComposite>
	<feComposite  k4="0" k2="1" k3="1" k1="0" in="SourceGraphic" in2="specOut" result="litPaint" operator="arithmetic">
		</feComposite>
	<feMerge>
		<feMergeNode  in="offsetBlur"></feMergeNode>
		<feMergeNode  in="litPaint"></feMergeNode>
	</feMerge>
</filter>
<g id="Layer_1">
	<radialGradient id="SVGID_1_" cx="100.0122" cy="100.1523" r="96.0188" gradientUnits="userSpaceOnUse">
		<stop  offset="0" style="stop-color:#FFFFFF"/>
		<stop  offset="1" style="stop-color:#923D29"/>
	</radialGradient>
	<path fill="url(#SVGID_1_)" stroke="#000000" stroke-width="5" d="M196.031,184.171c0,6.627-5.373,12-12,12H15.993
		c-6.627,0-12-5.373-12-12V16.133c0-6.627,5.373-12,12-12h168.038c6.627,0,12,5.373,12,12V184.171z"/>
</g>
<g id="Layer_2">
	<path fill="#010101" filter="url(#AI_BevelShadow_1)" d="M156.536,115.134l-0.244,1.003l-0.28,0.881l-0.369,1.169l-0.378,1.075
		l-0.67,1.771l-0.555,1.461l-0.827,1.741l-0.962,2.09l-1.256,2.331l-0.425,0.833l-0.697,1.081l-0.732,1.228l-1.22,1.828
		l-1.037,1.402l-0.78,1.066l-0.831,0.99l-1.617,1.886l-0.727,0.765l-0.792,0.89l-0.761,0.77l6.615,6.556l-0.356,0.408l-0.646,0.569
		l-0.611,0.565l-0.935,0.856l-0.932,0.831l-0.939,0.85l-1.019,0.817l-1.011,0.805l-1.923,1.427l-1.192,0.821l-1.165,0.79
		l-1.16,0.732l4.261,7.356l1.027-0.606l1.146-0.799l1.661-1.18l1.738-1.217l1.704-1.333l1.066-0.852l1.385-1.199l1.441-1.278
		l1.302-1.229l1.322-1.306l1.326-1.387l0.98-1.063l1.05-1.12l1.029-1.229l1.073-1.328l1.035-1.348l1.052-1.378l1.795-2.515
		l0.935-1.406l0.979-1.636l0.817-1.391l0.631-1.094l0.541-1.021l0.477-0.912l0.623-1.209l0.666-1.341l0.606-1.413l0.675-1.483
		l0.598-1.528l0.606-1.621l0.485-1.348l0.312-0.899l0.443-1.322l0.303-1.098l0.354-1.095l0.276-1.248l0.458-1.511l0.323-1.538
		l0.312-1.56l0.386-2.236l0.337-1.644l0.175-1.698l0.228-2.196l0.127-1.369l0.054-1.77l0.07-1.245l-8.49-0.029l0.017,0.096
		l-0.029,1.219l-0.152,1.283l-0.098,1.377l-0.221,1.929l-0.232,1.973l-0.421,2.217l-0.491,2.459l-0.646,2.455L156.536,115.134
		 M43.412,115.14l-8.994,2.427l-0.646-2.457l-0.489-2.459l-0.423-2.218l-0.232-1.97l-0.221-1.932l-0.097-1.375l-0.153-1.283
		l-0.029-1.22l0.018-0.096l-8.491,0.03l0.069,1.246l0.054,1.768l0.13,1.369l0.227,2.195l0.173,1.698l0.336,1.644l0.386,2.238
		l0.312,1.558l0.325,1.539l0.457,1.512l0.279,1.248l0.351,1.096l0.303,1.097l0.446,1.32l0.311,0.899l0.485,1.35l0.605,1.621
		l0.6,1.526l0.673,1.485l0.607,1.411l0.665,1.343l0.624,1.207l0.478,0.912l0.541,1.021l0.631,1.094l0.815,1.391l0.981,1.638
		l0.935,1.407l1.794,2.515l1.052,1.376l1.035,1.347l1.072,1.328l1.029,1.231l1.051,1.118l0.98,1.064l1.325,1.387l1.323,1.306
		l1.302,1.229l1.442,1.279l1.383,1.196l1.068,0.852l1.705,1.335l1.738,1.217l1.661,1.181l1.146,0.798l1.027,0.606l4.259-7.356
		l-1.159-0.734l-1.165-0.788l-1.193-0.82l-1.922-1.43l-1.011-0.803l-1.018-0.816l-0.939-0.851l-0.933-0.831l-0.935-0.856
		l-0.609-0.567l-0.647-0.569l-0.357-0.404l6.616-6.56l-0.762-0.768l-0.792-0.889l-0.727-0.766l-1.616-1.886l-0.832-0.99l-0.78-1.068
		l-1.037-1.4l-1.22-1.83l-0.733-1.226l-0.698-1.083l-0.424-0.833l-1.256-2.331l-0.962-2.09L45.91,122.5l-0.556-1.46l-0.67-1.774
		l-0.376-1.072l-0.369-1.17l-0.282-0.881L43.412,115.14z M43.469,84.85l0.245-1.003l0.281-0.88l0.37-1.17l0.375-1.075l0.67-1.772
		l0.556-1.46l0.827-1.741l0.961-2.089l1.256-2.331l0.424-0.833l0.698-1.083l0.732-1.226l1.22-1.83l1.037-1.4l0.78-1.068l0.832-0.989
		l1.616-1.887l0.727-0.764l0.792-0.89l0.761-0.768l-6.616-6.559l0.357-0.406l0.646-0.569l0.609-0.566l0.935-0.856l0.933-0.833
		l0.94-0.849l1.018-0.816l1.011-0.804l1.923-1.429l1.192-0.821l1.166-0.789l1.159-0.735l-4.26-7.357l-1.025,0.607l-1.146,0.799
		l-1.661,1.179l-1.738,1.217l-1.705,1.333l-1.068,0.853l-1.383,1.197l-1.442,1.279l-1.302,1.23l-1.323,1.305l-1.325,1.388
		l-0.981,1.062l-1.051,1.12l-1.028,1.23l-1.072,1.328l-1.036,1.349l-1.052,1.376l-1.794,2.514l-0.935,1.408l-0.982,1.636
		l-0.815,1.391l-0.631,1.093l-0.541,1.022l-0.478,0.912l-0.624,1.207l-0.665,1.343l-0.607,1.413l-0.673,1.484l-0.6,1.526
		l-0.605,1.622l-0.485,1.349l-0.31,0.898l-0.445,1.322l-0.304,1.099l-0.351,1.095l-0.279,1.247l-0.456,1.512l-0.326,1.538
		l-0.312,1.559L24.7,87.481l-0.336,1.643l-0.173,1.699l-0.226,2.195l-0.13,1.369l-0.054,1.769l-0.07,1.246l8.492,0.03l-0.018-0.096
		l0.031-1.219l0.152-1.283l0.097-1.376l0.221-1.93l0.231-1.971l0.423-2.217l0.49-2.459l0.646-2.455L43.469,84.85z M156.538,84.915
		l8.994-2.426l0.646,2.455l0.489,2.459l0.423,2.218l0.232,1.971l0.221,1.93l0.098,1.376l0.152,1.283l0.029,1.219l-0.017,0.096
		l8.492-0.03l-0.071-1.245l-0.054-1.769l-0.128-1.369l-0.228-2.195l-0.175-1.699l-0.337-1.643l-0.386-2.238l-0.312-1.559
		l-0.323-1.538l-0.458-1.512l-0.278-1.247l-0.351-1.096l-0.304-1.098l-0.443-1.322l-0.312-0.898l-0.487-1.349l-0.604-1.622
		l-0.598-1.526l-0.675-1.485l-0.606-1.413l-0.664-1.342l-0.625-1.207l-0.479-0.912l-0.541-1.022l-0.629-1.093l-0.814-1.391
		l-0.982-1.636l-0.937-1.407l-1.793-2.515l-1.052-1.376l-1.035-1.349l-1.073-1.328l-1.029-1.23l-1.05-1.12l-0.982-1.063
		l-1.324-1.387l-1.322-1.306l-1.302-1.229l-1.441-1.279l-1.385-1.197l-1.066-0.853l-1.704-1.333l-1.74-1.217l-1.659-1.18
		l-1.146-0.798l-1.027-0.608l-4.26,7.356l1.159,0.735l1.163,0.789l1.194,0.82l1.923,1.429l1.011,0.804l1.02,0.816l0.938,0.849
		l0.933,0.833l0.934,0.856l0.609,0.567l0.647,0.569l0.356,0.406l-6.615,6.558l0.761,0.768l0.792,0.89l0.727,0.764l1.615,1.887
		l0.833,0.989l0.78,1.067l1.037,1.401l1.22,1.83l0.732,1.226l0.699,1.083l0.423,0.833l1.256,2.331l0.962,2.09l0.827,1.74l0.557,1.46
		l0.669,1.772l0.375,1.074l0.369,1.17l0.283,0.88L156.538,84.915z M115.058,43.484l2.395-9.002l2.451,0.668l2.374,0.806l2.131,0.742
		l1.824,0.785l1.78,0.773l1.241,0.605l1.187,0.508l1.072,0.583l0.074,0.063l4.219-7.369l-1.113-0.562l-1.558-0.838l-1.25-0.573
		l-2.016-0.901l-1.558-0.7l-1.593-0.53l-2.131-0.785l-1.506-0.509l-1.493-0.488l-1.539-0.36l-1.22-0.382l-1.122-0.244l-1.104-0.286
		l-1.367-0.275l-0.935-0.181l-1.409-0.254l-1.706-0.286l-1.623-0.244l-1.622-0.159l-1.528-0.181l-1.494-0.095l-1.357-0.063
		l-1.027-0.043l-1.156-0.042h-1.261l-1.612,0.011l-1.909,0.031l-1.687,0.106l-3.074,0.296l-1.718,0.223l-1.685,0.223l-1.686,0.265
		l-1.58,0.275l-1.495,0.35l-1.411,0.318l-1.864,0.455l-1.792,0.493l-1.716,0.513l-1.829,0.609l-1.729,0.599l-1.272,0.499
		l-2.007,0.81l-1.923,0.897l-1.852,0.849l-1.264,0.593l-1.04,0.585l4.241,7.367l1.216-0.637l1.265-0.615l1.307-0.622l2.198-0.95
		l1.202-0.475l1.215-0.473l1.206-0.389l1.187-0.392l1.209-0.382l0.794-0.244l0.816-0.276l0.53-0.106l2.372,9.009l1.046-0.275
		l1.166-0.241l1.025-0.248l2.442-0.456l1.272-0.226l1.315-0.142l1.731-0.198l2.195-0.142l1.428-0.021l1.287-0.063l0.934,0.049
		l2.647,0.078l2.29,0.212l1.92,0.153l1.544,0.249l1.87,0.306l1.118,0.212l1.197,0.265l0.903,0.196L115.058,43.484z M115.148,156.544
		l-0.992,0.291l-0.903,0.196l-1.199,0.264l-1.118,0.213l-1.869,0.305l-1.543,0.25l-1.92,0.154l-2.291,0.211l-2.646,0.078
		l-0.934,0.05l-1.286-0.064l-1.428-0.021l-2.195-0.143l-1.732-0.197l-1.315-0.141l-1.272-0.227l-2.442-0.456l-1.024-0.248
		l-1.167-0.239l-1.046-0.276l-2.371,9.009l-0.53-0.107l-0.816-0.274l-0.795-0.243l-1.208-0.382l-1.188-0.394l-1.206-0.386
		l-1.215-0.475l-1.202-0.475l-2.199-0.951l-1.308-0.621l-1.266-0.614l-1.215-0.638l-4.242,7.366l1.039,0.586l1.266,0.595
		l1.853,0.848l1.922,0.897l2.007,0.809l1.272,0.499l1.729,0.599l1.829,0.61l1.716,0.512l1.792,0.493l1.864,0.453l1.41,0.318
		l1.495,0.351l1.58,0.276l1.686,0.264l1.686,0.223l1.718,0.224l3.075,0.297l1.686,0.107l1.908,0.03l1.612,0.011h1.261l1.158-0.041
		l1.027-0.044l1.357-0.063l1.495-0.095l1.526-0.182l1.624-0.159l1.621-0.243l1.706-0.285l1.411-0.256l0.933-0.179l1.367-0.277
		l1.104-0.286l1.122-0.243l1.22-0.382l1.539-0.361l1.495-0.486l1.504-0.51l2.133-0.784l1.589-0.53l1.562-0.701l2.014-0.901
		l1.252-0.571l1.558-0.838l1.113-0.563l-4.221-7.368l-0.074,0.063l-1.07,0.584l-1.188,0.51l-1.239,0.604l-1.782,0.773l-1.824,0.784
		l-2.131,0.742l-2.376,0.805l-2.447,0.671L115.148,156.544z M112.265,54.095l-7.134,26.566l-1.357-0.382l-1.588-0.212l-2.207-0.127
		l-2.651,0.17l-2.523,0.445l-7.122-26.485l-5.512,1.89l-3.754,1.716l-2.804,1.505l-3.95,2.699l-2.972,2.397l-2.303,2.106
		l19.411,19.452l-1.852,2.163l-1.753,2.756l-0.721,1.569L80.95,93.78l-0.296,1.046l-26.557-7.111L52.889,93.5l-0.267,3.425
		l-0.13,3.916l0.181,3.526l0.617,4.167l0.806,3.736l26.578-7.097l0.969,2.877l0.699,1.364l1.025,1.803l1.4,1.737l1.103,1.168
		L66.375,133.63l3.493,3.082l2.688,2.046l3.094,1.986l3.521,1.929l3.201,1.457l5.298,1.76l7.145-26.552l1.993,0.417l1.88,0.232
		l1.718,0.035l2.099-0.177l2.671-0.493l7.113,26.569l4.856-1.597l4.093-1.805l3.752-2.131l3.501-2.372l5.1-4.421l-19.466-19.472
		l1.3-1.421l1.017-1.314l0.664-1.013l1.43-2.739l0.788-2.47l26.5,7.16l1.131-4.993l0.501-5.386l-0.083-5.738l-0.327-3.036
		l-1.147-5.502l-26.576,7.153l-0.276-1.124l-0.571-1.449l-1.217-2.403l-1.343-1.961l-1.787-2.041l19.437-19.451l-2.853-2.59
		l-5.009-3.791l-4.908-2.792l-4.501-1.9L112.265,54.095z M99.905,18.571c44.971-0.052,81.472,36.362,81.523,81.334
		c0.054,44.97-36.362,81.471-81.333,81.523c-44.973,0.054-81.472-36.362-81.524-81.333C18.518,55.123,54.933,18.623,99.905,18.571z"
		/>
</g>
</svg>
